<svg width="317" height="220" viewBox="0 0 317 220" fill="none" xmlns="http://www.w3.org/2000/svg">
<circle cx="154.666" cy="174.61" r="45.1429" fill="#38B949"/>
<path d="M153.72 177.567L164.409 177.571L164.408 182.943L155.896 182.941V184.024L164.401 184.026L164.407 186.165L153.718 186.162L153.719 180.749L162.221 180.77V179.77L153.719 179.758L153.72 177.567Z" fill="white"/>
<path d="M180.465 169.712L180.466 165.435H178.335L178.331 180.425H180.462L180.464 171.836L182.595 171.838L182.596 169.712H180.465Z" fill="white"/>
<path d="M160.133 173.249C162.588 172.766 164.44 170.609 164.44 168.02C164.441 165.075 162.047 162.687 159.093 162.686C156.139 162.684 153.744 165.071 153.743 168.017C153.742 170.589 155.568 172.736 157.999 173.24V174.509L152.625 174.508L152.624 176.595L165.495 176.598L165.496 174.511L160.133 174.51V173.249ZM155.976 168.018C155.976 166.302 157.372 164.911 159.093 164.912C160.814 164.912 162.209 166.304 162.208 168.02C162.208 169.736 160.812 171.127 159.091 171.126C157.37 171.125 155.975 169.733 155.976 168.018Z" fill="white"/>
<path d="M167.68 167.57L176.204 167.572L176.202 175.113L169.851 175.111L169.822 178.251L176.201 178.265L176.2 180.403L167.676 180.401L167.678 173.024L174.006 173.025L174.025 169.704L167.679 169.702L167.68 167.57Z" fill="white"/>
<path d="M138.748 176.282H141.373C141.515 176.282 141.629 176.168 141.629 176.027V173.846C141.629 173.705 141.515 173.591 141.373 173.591H138.748C138.607 173.591 138.492 173.705 138.492 173.846V176.027C138.492 176.168 138.607 176.282 138.748 176.282Z" fill="white"/>
<path d="M138.748 181.188H141.373C141.515 181.188 141.629 181.073 141.629 180.933V177.807C141.629 177.666 141.515 177.552 141.373 177.552H138.748C138.607 177.552 138.492 177.666 138.492 177.807V180.933C138.492 181.073 138.607 181.188 138.748 181.188Z" fill="white"/>
<path d="M130.846 170.168H133.471C133.612 170.168 133.727 170.053 133.727 169.913V167.733C133.727 167.592 133.612 167.478 133.471 167.478H130.846C130.705 167.478 130.59 167.592 130.59 167.733V169.914C130.59 170.053 130.705 170.168 130.846 170.168Z" fill="white"/>
<path d="M149.373 171.234C149.249 170.831 148.962 170.567 148.64 170.316C146.144 168.369 143.652 166.418 141.165 164.459C140.654 164.057 140.092 163.838 139.439 163.839C136.127 163.84 132.813 163.838 129.5 163.838C129.334 163.838 129.168 163.846 129.005 163.877C127.787 164.108 126.985 165.078 126.985 166.317C126.983 171.754 126.982 177.192 126.98 182.629C126.98 182.748 126.985 182.867 126.993 182.986C127.077 184.198 128.144 185.194 129.363 185.194C132.46 185.196 135.557 185.196 138.654 185.197C141.719 185.199 144.784 185.2 147.849 185.2C147.992 185.2 148.134 185.194 148.274 185.162C148.982 184.997 149.451 184.379 149.451 183.599C149.453 179.657 149.453 175.716 149.455 171.774C149.454 171.591 149.428 171.411 149.373 171.234ZM128.89 174.507C128.891 171.786 128.891 169.065 128.892 166.344C128.892 165.95 129.099 165.739 129.492 165.739C132.81 165.739 136.128 165.74 139.446 165.742C139.844 165.742 140.048 165.95 140.048 166.344C140.048 167.854 140.049 169.363 140.044 170.873C140.044 171.003 140.083 171.026 140.203 171.026C141.316 171.022 142.43 171.024 143.544 171.024C143.977 171.024 144.176 171.222 144.176 171.655C144.175 175.325 144.171 178.996 144.177 182.667C144.178 183.05 143.954 183.305 143.531 183.304C138.851 183.294 134.172 183.297 129.491 183.295C129.091 183.295 128.888 183.094 128.888 182.697C128.888 179.966 128.889 177.237 128.89 174.507Z" fill="white"/>
<path d="M141.373 173.591H138.748C138.607 173.591 138.492 173.705 138.492 173.846V176.027C138.492 176.168 138.607 176.282 138.748 176.282H141.373C141.515 176.282 141.629 176.168 141.629 176.027V173.846C141.629 173.705 141.515 173.591 141.373 173.591Z" fill="white"/>
<path d="M133.47 167.478H130.846C130.705 167.478 130.59 167.592 130.59 167.733V169.914C130.59 170.054 130.705 170.169 130.846 170.169H133.471C133.612 170.169 133.727 170.054 133.727 169.914V167.733C133.726 167.592 133.611 167.478 133.47 167.478Z" fill="white"/>
<path d="M141.373 177.553H138.748C138.607 177.553 138.492 177.667 138.492 177.808V180.934C138.492 181.074 138.607 181.189 138.748 181.189H141.373C141.515 181.189 141.629 181.074 141.629 180.934V177.808C141.629 177.667 141.515 177.553 141.373 177.553Z" fill="white"/>
<circle cx="45.6429" cy="45.1429" r="45.1429" fill="#458FFF"/>
<circle cx="256.877" cy="45.1429" r="45.1429" fill="#458FFF"/>
<g clip-path="url(#clip0_1134_32934)">
<path d="M276.571 49.5678C276.384 49.8489 276.128 49.9468 275.788 49.9468C273.935 49.9383 272.078 49.9426 270.226 49.9426C269.621 49.9426 269.421 49.7424 269.421 49.1377C269.421 42.1192 269.421 35.1008 269.421 28.0823C269.421 27.4946 269.613 27.2987 270.2 27.2987C272.04 27.2987 273.884 27.303 275.724 27.2902C276.065 27.286 276.35 27.3584 276.571 27.6224C276.571 34.939 276.571 42.2512 276.571 49.5678ZM270.681 40.4328C270.681 40.8246 270.681 41.1866 270.681 41.5784C271.461 41.5784 272.21 41.5784 272.981 41.5784C272.981 42 272.981 42.3875 272.981 42.8219C272.193 42.8219 271.431 42.8219 270.677 42.8219C270.677 43.218 270.677 43.5715 270.677 43.9675C271.065 43.9675 271.427 43.9675 271.793 43.9675C271.793 44.3934 271.793 44.7682 271.793 45.1898C271.41 45.1898 271.048 45.1898 270.681 45.1898C270.681 45.5944 270.681 45.9564 270.681 46.3439C271.465 46.3439 272.215 46.3439 272.977 46.3439C272.977 46.7655 272.977 47.1531 272.977 47.5832C272.185 47.5832 271.427 47.5832 270.681 47.5832C270.681 47.9793 270.681 48.3328 270.681 48.6862C272.253 48.6862 273.79 48.6862 275.332 48.6862C275.332 41.9574 275.332 35.2541 275.332 28.5551C273.761 28.5551 272.223 28.5551 270.677 28.5551C270.677 28.9341 270.677 29.2876 270.677 29.6836C271.065 29.6836 271.427 29.6836 271.797 29.6836C271.797 30.1095 271.797 30.4843 271.797 30.9102C271.414 30.9102 271.052 30.9102 270.686 30.9102C270.686 31.3147 270.686 31.6767 270.686 32.0685C271.469 32.0685 272.219 32.0685 272.977 32.0685C272.977 32.4902 272.977 32.8777 272.977 33.2951C272.193 33.2951 271.444 33.2951 270.686 33.2951C270.686 33.6869 270.686 34.0489 270.686 34.4407C271.069 34.4407 271.423 34.4407 271.793 34.4407C271.793 34.858 271.793 35.2456 271.793 35.68C271.405 35.68 271.043 35.68 270.681 35.68C270.681 36.0803 270.681 36.4295 270.681 36.8298C271.465 36.8298 272.223 36.8298 272.99 36.8298C272.99 37.2557 272.99 37.6347 272.99 38.0564C272.206 38.0564 271.448 38.0564 270.681 38.0564C270.681 38.4524 270.681 38.8059 270.681 39.202C271.065 39.202 271.431 39.202 271.789 39.202C271.789 39.6364 271.789 40.0197 271.789 40.437C271.397 40.4328 271.043 40.4328 270.681 40.4328Z" fill="white"/>
<path d="M263.47 26.0936C263.47 24.488 263.47 22.9336 263.47 21.2939C264.343 21.3408 265.199 21.2939 266.012 21.4515C267.367 21.7156 268.265 22.9634 268.274 24.4071C268.282 26.2341 268.274 28.0654 268.274 29.8924C268.274 35.4799 268.274 41.0674 268.274 46.6549C268.274 48.7033 267.03 49.9426 264.973 49.9426C257.533 49.9426 250.093 49.9426 242.649 49.9426C242.483 49.9426 242.321 49.9426 242.1 49.9426C242.1 51.5269 242.1 53.0899 242.1 54.7508C241.197 54.6954 240.328 54.738 239.506 54.5677C238.228 54.3036 237.372 53.1538 237.291 51.8122C237.287 51.6717 237.287 51.5312 237.287 51.3906C237.287 44.0357 237.287 36.6851 237.287 29.3345C237.287 27.3499 238.539 26.0936 240.515 26.0936C247.981 26.0936 255.446 26.0936 262.916 26.0936C263.078 26.0936 263.244 26.0936 263.47 26.0936ZM263.47 27.3201C263.3 27.3201 263.189 27.3201 263.074 27.3201C255.527 27.3201 247.985 27.3201 240.439 27.3201C239.225 27.3201 238.514 28.0356 238.514 29.2578C238.514 35.7908 238.514 42.328 238.514 48.8609C238.514 48.9802 238.526 49.0994 238.539 49.2868C239.289 48.7204 240.098 48.7076 240.928 48.7076C248.922 48.7161 256.911 48.7119 264.905 48.7119C265.059 48.7119 265.212 48.7161 265.365 48.7076C266.157 48.6522 266.796 48.1327 266.979 47.4002C267.265 46.2546 266.472 45.2112 265.288 45.1899C264.692 45.1771 264.096 45.1899 263.47 45.1899C263.47 39.2148 263.47 33.2994 263.47 27.3201ZM267.043 44.6788C267.043 44.4275 267.043 44.287 267.043 44.1465C267.043 40.4924 267.043 36.8342 267.043 33.1802C267.043 30.2672 267.047 27.3542 267.039 24.4369C267.035 23.1337 265.978 22.316 264.714 22.6184C264.714 29.7135 264.714 36.8129 264.714 43.9676C265.582 43.8526 266.323 44.1124 267.043 44.6788ZM240.835 49.9682C240.004 49.866 239.276 50.0023 238.803 50.7433C238.403 51.3693 238.403 52.0294 238.799 52.6597C239.267 53.405 240 53.537 240.835 53.4519C240.835 52.285 240.835 51.1308 240.835 49.9682Z" fill="white"/>
<path d="M255.531 55.8918C253.64 55.8918 251.744 55.896 249.854 55.8875C249.709 55.8875 249.547 55.8407 249.415 55.7768C248.299 55.2359 247.192 54.6823 246.08 54.1372C245.821 54.0094 245.629 53.8476 245.62 53.5367C245.612 53.2045 245.816 53.0341 246.089 52.9021C247.188 52.357 248.278 51.7991 249.381 51.2582C249.555 51.1731 249.768 51.1177 249.964 51.1177C253.648 51.1007 257.332 51.0879 261.012 51.0879C262.374 51.0879 263.115 51.9098 263.205 53.2641C263.328 55.1124 262.225 55.9557 260.594 55.8833C258.908 55.8066 257.217 55.8662 255.531 55.8662C255.531 55.8705 255.531 55.8833 255.531 55.8918ZM259.287 52.3527C256.306 52.3527 253.367 52.3527 250.433 52.3527C250.433 52.5444 250.433 52.6892 250.433 52.8553C253.397 52.8553 256.335 52.8553 259.287 52.8553C259.287 52.6722 259.287 52.5231 259.287 52.3527ZM259.278 54.1329C256.323 54.1329 253.388 54.1329 250.437 54.1329C250.437 54.299 250.437 54.4566 250.437 54.6269C253.397 54.6269 256.331 54.6269 259.278 54.6269C259.278 54.4523 259.278 54.3075 259.278 54.1329ZM260.547 54.6099C261.348 54.6738 261.718 54.6014 261.855 54.2394C262.051 53.7198 262.093 53.1449 261.812 52.6509C261.54 52.1781 261.02 52.3059 260.547 52.3272C260.547 53.098 260.547 53.8433 260.547 54.6099ZM249.155 54.282C249.155 53.7411 249.155 53.2641 249.155 52.736C248.627 53.0001 248.146 53.2428 247.605 53.5154C248.146 53.7837 248.627 54.0222 249.155 54.282Z" fill="white"/>
<path d="M245.624 29.6748C245.624 30.1007 245.624 30.4712 245.624 30.88C244.857 30.88 244.099 30.88 243.303 30.88C243.303 33.6653 243.303 36.4036 243.303 39.1846C244.862 39.1846 246.416 39.1846 247.992 39.1846C247.992 39.6062 247.992 39.981 247.992 40.4026C246.433 40.4026 244.879 40.4026 243.299 40.4026C243.299 41.9869 243.299 43.5243 243.299 45.0958C245.637 45.0958 247.983 45.0958 250.368 45.0958C250.368 42.3787 250.368 39.6616 250.368 36.9147C250.786 36.9147 251.165 36.9147 251.586 36.9147C251.586 39.6318 251.586 42.3446 251.586 45.0958C251.991 45.0958 252.353 45.0958 252.762 45.0958C252.762 44.951 252.762 44.8147 252.762 44.6784C252.762 43.503 252.757 42.3276 252.762 41.1479C252.762 40.5687 252.97 40.3686 253.554 40.3686C255.01 40.3643 256.471 40.3643 257.928 40.3686C258.545 40.3686 258.749 40.5772 258.749 41.2075C258.754 42.3574 258.749 43.5073 258.749 44.6614C258.749 44.8019 258.749 44.9382 258.749 45.1043C259.133 45.1043 259.482 45.1043 259.87 45.1043C259.87 43.1623 259.87 41.2161 259.87 39.2272C257.514 39.2272 255.172 39.2272 252.8 39.2272C252.8 38.8056 252.8 38.4308 252.8 38.0092C253.562 38.0092 254.325 38.0092 255.13 38.0092C255.13 36.4122 255.13 34.8577 255.13 33.282C255.551 33.282 255.93 33.282 256.356 33.282C256.356 34.8449 256.356 36.3994 256.356 37.9709C257.549 37.9709 258.694 37.9709 259.87 37.9709C259.87 35.6328 259.87 33.3033 259.87 30.9354C257.131 30.9354 254.393 30.9354 251.603 30.9354C251.603 32.098 251.603 33.2564 251.603 34.4318C251.177 34.4318 250.803 34.4318 250.377 34.4318C250.377 33.2564 250.377 32.1023 250.377 30.9098C249.58 30.9098 248.831 30.9098 248.047 30.9098C248.047 30.4925 248.047 30.1049 248.047 29.6748C248.192 29.6748 248.328 29.6748 248.465 29.6748C252.391 29.6748 256.318 29.6748 260.24 29.6748C260.947 29.6748 261.126 29.8494 261.126 30.5564C261.126 35.5306 261.126 40.5048 261.126 45.4791C261.126 46.1818 260.947 46.3606 260.24 46.3606C254.461 46.3606 248.682 46.3606 242.898 46.3606C242.213 46.3606 242.038 46.186 242.038 45.5004C242.038 40.5134 242.038 35.5263 242.038 30.5393C242.038 29.8537 242.213 29.6791 242.898 29.6748C243.797 29.6748 244.691 29.6748 245.624 29.6748ZM254.009 45.1043C255.202 45.1043 256.343 45.1043 257.489 45.1043C257.489 43.9246 257.489 42.7748 257.489 41.6292C256.309 41.6292 255.168 41.6292 254.009 41.6292C254.009 42.7961 254.009 43.9417 254.009 45.1043Z" fill="white"/>
</g>
<path d="M207.734 46.1426C208.287 46.1426 208.734 45.6949 208.734 45.1426C208.734 44.5903 208.287 44.1426 207.734 44.1426V46.1426ZM94.7861 45.1426L104.786 50.9161V39.3691L94.7861 45.1426ZM207.734 44.1426H103.786V46.1426H207.734V44.1426Z" fill="#458FFF"/>
<path d="M46.6426 94.2861C46.6426 93.7338 46.1949 93.2861 45.6426 93.2861C45.0903 93.2861 44.6426 93.7338 44.6426 94.2861H46.6426ZM105.523 174.61L95.5231 168.837V180.384L105.523 174.61ZM44.6426 94.2861V150.61H46.6426V94.2861H44.6426ZM69.6426 175.61H96.5231V173.61H69.6426V175.61ZM44.6426 150.61C44.6426 164.417 55.8355 175.61 69.6426 175.61V173.61C56.94 173.61 46.6426 163.313 46.6426 150.61H44.6426Z" fill="#38B949"/>
<path d="M203.81 173.61C203.257 173.61 202.81 174.058 202.81 174.61C202.81 175.162 203.257 175.61 203.81 175.61V173.61ZM256.877 94.2861L251.104 104.286H262.651L256.877 94.2861ZM203.81 175.61H232.877V173.61H203.81V175.61ZM257.877 150.61V103.286H255.877V150.61H257.877ZM232.877 175.61C246.684 175.61 257.877 164.417 257.877 150.61H255.877C255.877 163.313 245.58 173.61 232.877 173.61V175.61Z" fill="#38B949"/>
<path d="M38.7024 68.8045V69.3752H40.3548V72.0923H41.0618V66.4537H40.3548V68.8045H38.7024ZM35.2698 67.0414V67.6121H37.9869C37.8336 68.9834 36.6326 70.0736 34.8866 70.6528L35.1847 71.215C37.3481 70.4995 38.7365 69.0089 38.7365 67.0414H35.2698ZM36.9308 73.3444V71.5216H36.2323V73.915H41.2577V73.3444H36.9308ZM43.0201 69.8607C44.2722 69.7329 45.388 69.273 45.8479 68.5064C46.3079 69.273 47.4152 69.7329 48.6672 69.8607L48.8887 69.3326C47.4407 69.1878 46.2823 68.6001 46.2227 67.7483H48.5906V67.1947H46.1972V66.4026H45.4987V67.1947H43.1053V67.7483H45.4647C45.405 68.6001 44.2467 69.1878 42.8072 69.3326L43.0201 69.8607ZM49.2975 70.8487V70.2866H42.3898V70.8487H45.4987V71.726H43.1564V72.2797H47.7474V74.0598H48.4458V71.726H46.1972V70.8487H49.2975ZM50.6938 70.1588C51.8777 69.9544 53.002 69.3156 53.4705 68.4127C53.9304 69.3156 55.0632 69.9544 56.2472 70.1588L56.5197 69.6052C55.174 69.4093 53.8538 68.5319 53.8538 67.5269V67.4843H56.2472V66.9221H50.6682V67.4843H53.0787V67.5269C53.0787 68.5319 51.7584 69.4093 50.4297 69.6052L50.6938 70.1588ZM56.9201 70.7976H50.0209V71.3683H53.1042V74.0854H53.8026V71.3683H56.9286L56.9201 70.7976Z" fill="white"/>
<path d="M125.863 20.3748V20.9455H127.516V23.6626H128.222V18.024H127.516V20.3748H125.863ZM122.431 18.6117V19.1824H125.148C124.994 20.5537 123.793 21.6439 122.047 22.2231L122.345 22.7853C124.509 22.0698 125.897 20.5792 125.897 18.6117H122.431ZM124.091 24.9147V23.0919H123.393V25.4853H128.418V24.9147H124.091ZM130.181 21.431C131.433 21.3032 132.549 20.8433 133.009 20.0767C133.469 20.8433 134.576 21.3032 135.828 21.431L136.049 20.9029C134.601 20.7581 133.443 20.1704 133.383 19.3186H135.751V18.765H133.358V17.9729H132.659V18.765H130.266V19.3186H132.625C132.566 20.1704 131.407 20.7581 129.968 20.9029L130.181 21.431ZM136.458 22.419V21.8569H129.551V22.419H132.659V23.2963H130.317V23.85H134.908V25.6301H135.607V23.2963H133.358V22.419H136.458ZM144.76 21.9676H145.467V18.024H144.76V19.4038H143.099V19.9745H144.76V21.9676ZM143.636 21.2606C142.537 20.8944 141.762 19.966 141.762 18.9694V18.2625H141.072V18.9694C141.072 20.0767 140.314 21.0392 139.164 21.431L139.53 21.9846C140.425 21.6525 141.115 20.9881 141.438 20.1278C141.771 20.9029 142.435 21.5077 143.278 21.8058L143.636 21.2606ZM141.251 24.9998V24.1822H145.467V22.3509H140.544V22.9045H144.777V23.6541H140.561V25.5535H145.757V24.9998H141.251ZM151.088 20.1448H149.955C150.023 19.7616 150.057 19.3783 150.057 18.9865H147.127V19.5571H149.368C149.248 21.1584 148.431 22.5298 146.787 23.5093L147.196 24.0033C148.644 23.143 149.47 21.9932 149.827 20.707H151.088V22.0528H149.708V22.6234H151.088V25.2639H151.752V18.2199H151.088V20.1448ZM152.621 18.0155V25.6472H153.286V18.0155H152.621ZM160.71 20.1448H159.577C159.645 19.7616 159.68 19.3783 159.68 18.9865H156.75V19.5571H158.99C158.87 21.1584 158.053 22.5298 156.409 23.5093L156.818 24.0033C158.266 23.143 159.092 21.9932 159.45 20.707H160.71V22.0528H159.33V22.6234H160.71V25.2639H161.375V18.2199H160.71V20.1448ZM162.243 18.0155V25.6472H162.908V18.0155H162.243ZM164.866 20.2811C164.866 19.5571 165.411 19.0631 166.178 19.0631C166.936 19.0631 167.489 19.5571 167.489 20.2811C167.489 20.9966 166.936 21.4991 166.178 21.4991C165.411 21.4991 164.866 20.9966 164.866 20.2811ZM168.171 20.2811C168.171 19.2079 167.328 18.4754 166.178 18.4754C165.019 18.4754 164.185 19.2079 164.185 20.2811C164.185 21.3458 165.019 22.0868 166.178 22.0868C167.328 22.0868 168.171 21.3458 168.171 20.2811ZM165.002 23.4837H169.27V25.6557H169.968V22.913H165.002V23.4837ZM171.075 19.7616V19.1824H169.968V18.024H169.27V22.5553H169.968V21.3884H171.075V20.8177H169.968V19.7616H171.075ZM175.885 20.0001H177.299V19.4209H175.894V18.288H175.221V19.4209H173.807V20.0001H175.221V20.3663C175.221 21.6184 174.633 22.9556 173.602 23.5689L174.011 24.0885C174.761 23.637 175.297 22.7853 175.561 21.8143C175.842 22.7342 176.388 23.5093 177.129 23.9266L177.529 23.3985C176.498 22.8449 175.885 21.5843 175.885 20.3663V20.0001ZM177.946 21.0307H176.779V21.6099H177.946V25.2554H178.611V18.1943H177.946V21.0307ZM179.479 18.0155V25.6472H180.152V18.0155H179.479ZM153.383 33.6679V34.5792H151.389V35.1244H153.383V35.9165H154.089V32.0155H153.383V33.1227H151.653C151.705 32.8843 151.73 32.6458 151.73 32.3902H148.315V32.9609H150.972C150.844 34.1704 149.78 35.0818 147.914 35.5162L148.17 36.0868C149.856 35.6865 151.023 34.8688 151.5 33.6679H153.383ZM149.873 39.0254V38.1396H154.089V36.2657H149.166V36.8279H153.391V37.6115H149.183V39.579H154.345V39.0254H149.873Z" fill="#1D1C1D"/>
<path d="M9.26927 128.198H8.13644C8.20458 127.814 8.23865 127.431 8.23865 127.039H5.30862V127.61H7.54873C7.42949 129.211 6.6118 130.582 4.96792 131.562L5.37676 132.056C6.82474 131.196 7.65094 130.046 8.00868 128.76H9.26927V130.106H7.88943V130.676H9.26927V133.317H9.93364V126.273H9.26927V128.198ZM10.8024 126.068V133.7H11.4668V126.068H10.8024ZM13.4252 128.334C13.4252 127.61 13.9703 127.116 14.7369 127.116C15.4949 127.116 16.0486 127.61 16.0486 128.334C16.0486 129.049 15.4949 129.552 14.7369 129.552C13.9703 129.552 13.4252 129.049 13.4252 128.334ZM16.73 128.334C16.73 127.261 15.8867 126.528 14.7369 126.528C13.5785 126.528 12.7438 127.261 12.7438 128.334C12.7438 129.399 13.5785 130.14 14.7369 130.14C15.8867 130.14 16.73 129.399 16.73 128.334ZM13.5614 131.536H17.8287V133.708H18.5272V130.966H13.5614V131.536ZM19.6344 127.814V127.235H18.5272V126.077H17.8287V130.608H18.5272V129.441H19.6344V128.87H18.5272V127.814H19.6344ZM22.6149 130.353C22.93 130.429 23.2963 130.472 23.6711 130.472C24.0544 130.472 24.4206 130.429 24.7443 130.353V132.15H22.6149V130.353ZM23.6711 127.099C24.8976 127.099 25.7834 127.661 25.7834 128.513C25.7834 129.364 24.8976 129.927 23.6711 129.927C22.4446 129.927 21.5672 129.364 21.5672 128.513C21.5672 127.661 22.4446 127.099 23.6711 127.099ZM25.4427 132.15V130.08C26.073 129.748 26.4478 129.203 26.4478 128.513C26.4478 127.32 25.2979 126.554 23.6711 126.554C22.0527 126.554 20.8944 127.32 20.8944 128.513C20.8944 129.203 21.2776 129.756 21.9165 130.088V132.15H20.213V132.729H27.1547V132.15H25.4427ZM31.9069 128.24V128.819H33.4315V130.702H34.1384V126.068H33.4315V128.24H31.9069ZM32.3668 129.833C31.2425 129.501 30.4504 128.649 30.4504 127.695V127.55H32.1368V126.988H30.4504V126.026H29.7519V126.988H28.0569V127.55H29.7519V127.695C29.7519 128.726 28.9853 129.654 27.861 130.037L28.2017 130.574C29.1046 130.276 29.7945 129.629 30.1182 128.794C30.4674 129.535 31.1573 130.106 32.0346 130.378L32.3668 129.833ZM31.6087 133.155C30.4589 133.155 29.769 132.831 29.769 132.295C29.769 131.766 30.4589 131.443 31.6087 131.443C32.7756 131.443 33.4656 131.766 33.4656 132.295C33.4656 132.831 32.7671 133.155 31.6087 133.155ZM31.6087 130.898C30.0415 130.898 29.0705 131.409 29.0705 132.295C29.0705 133.189 30.0415 133.7 31.6087 133.7C33.193 133.7 34.164 133.189 34.164 132.295C34.164 131.409 33.193 130.898 31.6087 130.898Z" fill="#1D1C1D"/>
<path d="M275.38 128.198H274.248C274.316 127.814 274.35 127.431 274.35 127.039H271.42V127.61H273.66C273.541 129.211 272.723 130.582 271.079 131.562L271.488 132.056C272.936 131.196 273.762 130.046 274.12 128.76H275.38V130.106H274.001V130.676H275.38V133.317H276.045V126.273H275.38V128.198ZM276.914 126.068V133.7H277.578V126.068H276.914ZM279.536 128.334C279.536 127.61 280.081 127.116 280.848 127.116C281.606 127.116 282.16 127.61 282.16 128.334C282.16 129.049 281.606 129.552 280.848 129.552C280.081 129.552 279.536 129.049 279.536 128.334ZM282.841 128.334C282.841 127.261 281.998 126.528 280.848 126.528C279.69 126.528 278.855 127.261 278.855 128.334C278.855 129.399 279.69 130.14 280.848 130.14C281.998 130.14 282.841 129.399 282.841 128.334ZM279.673 131.536H283.94V133.708H284.638V130.966H279.673V131.536ZM285.746 127.814V127.235H284.638V126.077H283.94V130.608H284.638V129.441H285.746V128.87H284.638V127.814H285.746ZM294.601 126.077H293.903V131.664H294.601V126.077ZM293 130.02C291.875 129.646 291.083 128.717 291.083 127.687V127.269H292.812V126.707H288.622V127.269H290.368V127.687C290.368 128.777 289.593 129.773 288.434 130.174L288.801 130.719C289.704 130.395 290.41 129.705 290.734 128.836C291.083 129.637 291.782 130.267 292.659 130.574L293 130.02ZM290.385 132.967V131.136H289.686V133.538H294.831V132.967H290.385ZM300.759 128.717H301.73V130.906H302.402V126.068H301.73V128.146H300.759V126.213H300.094V130.625H300.759V128.717ZM299.788 126.98H298.203V126.128H297.513V126.98H295.912V127.533H299.796L299.788 126.98ZM296.858 129.237C296.858 128.768 297.258 128.453 297.863 128.453C298.459 128.453 298.868 128.768 298.868 129.237C298.868 129.714 298.459 130.029 297.863 130.029C297.258 130.029 296.858 129.714 296.858 129.237ZM299.489 129.237C299.489 128.453 298.825 127.934 297.863 127.934C296.9 127.934 296.227 128.453 296.227 129.237C296.227 130.037 296.9 130.548 297.863 130.548C298.825 130.548 299.489 130.037 299.489 129.237ZM299.89 133.163C298.723 133.163 298.024 132.874 298.024 132.371C298.024 131.86 298.723 131.571 299.89 131.571C301.048 131.571 301.747 131.86 301.747 132.371C301.747 132.874 301.048 133.163 299.89 133.163ZM299.89 131.034C298.297 131.034 297.335 131.511 297.335 132.371C297.335 133.223 298.297 133.7 299.89 133.7C301.483 133.7 302.445 133.223 302.445 132.371C302.445 131.511 301.483 131.034 299.89 131.034ZM307.97 130.353C308.285 130.429 308.652 130.472 309.026 130.472C309.41 130.472 309.776 130.429 310.1 130.353V132.15H307.97V130.353ZM309.026 127.099C310.253 127.099 311.139 127.661 311.139 128.513C311.139 129.364 310.253 129.927 309.026 129.927C307.8 129.927 306.923 129.364 306.923 128.513C306.923 127.661 307.8 127.099 309.026 127.099ZM310.798 132.15V130.08C311.428 129.748 311.803 129.203 311.803 128.513C311.803 127.32 310.653 126.554 309.026 126.554C307.408 126.554 306.25 127.32 306.25 128.513C306.25 129.203 306.633 129.756 307.272 130.088V132.15H305.568V132.729H312.51V132.15H310.798ZM292.395 142.24V142.819H293.92V144.702H294.627V140.068H293.92V142.24H292.395ZM292.855 143.833C291.731 143.501 290.939 142.649 290.939 141.695V141.55H292.625V140.988H290.939V140.026H290.24V140.988H288.545V141.55H290.24V141.695C290.24 142.726 289.474 143.654 288.349 144.037L288.69 144.574C289.593 144.276 290.283 143.629 290.606 142.794C290.956 143.535 291.645 144.106 292.523 144.378L292.855 143.833ZM292.097 147.155C290.947 147.155 290.257 146.831 290.257 146.295C290.257 145.766 290.947 145.443 292.097 145.443C293.264 145.443 293.954 145.766 293.954 146.295C293.954 146.831 293.255 147.155 292.097 147.155ZM292.097 144.898C290.53 144.898 289.559 145.409 289.559 146.295C289.559 147.189 290.53 147.7 292.097 147.7C293.681 147.7 294.652 147.189 294.652 146.295C294.652 145.409 293.681 144.898 292.097 144.898Z" fill="#1D1C1D"/>
<path d="M250.363 68.8045V69.3752H252.015V72.0923H252.722V66.4537H252.015V68.8045H250.363ZM246.93 67.0414V67.6121H249.647C249.494 68.9834 248.293 70.0736 246.547 70.6528L246.845 71.215C249.008 70.4995 250.397 69.0089 250.397 67.0414H246.93ZM248.591 73.3444V71.5216H247.892V73.915H252.918V73.3444H248.591ZM254.68 69.8607C255.932 69.7329 257.048 69.273 257.508 68.5064C257.968 69.273 259.075 69.7329 260.327 69.8607L260.549 69.3326C259.101 69.1878 257.942 68.6001 257.883 67.7483H260.251V67.1947H257.857V66.4026H257.159V67.1947H254.765V67.7483H257.125C257.065 68.6001 255.907 69.1878 254.467 69.3326L254.68 69.8607ZM260.958 70.8487V70.2866H254.05V70.8487H257.159V71.726H254.817V72.2797H259.408V74.0598H260.106V71.726H257.857V70.8487H260.958ZM264.236 67.1095H263.546V68.4808C263.546 69.8692 262.678 71.3342 261.579 71.8964L261.996 72.4585C262.856 71.9986 263.563 71.0446 263.896 69.9288C264.245 70.9765 264.935 71.8708 265.744 72.3052L266.178 71.7516C265.105 71.215 264.236 69.8266 264.236 68.4808V67.1095ZM268.81 69.5455H267.55V66.4537H266.851V74.0854H267.55V70.1247H268.81V69.5455Z" fill="white"/>
<path d="M94.196 33.1904C93.6437 33.1884 93.1944 33.6345 93.1924 34.1868C93.1904 34.7391 93.6365 35.1884 94.1888 35.1904L94.196 33.1904ZM211.734 34.6163L201.755 28.8066L201.713 40.3535L211.734 34.6163ZM94.1888 35.1904L202.731 35.5837L202.738 33.5837L94.196 33.1904L94.1888 35.1904Z" fill="#458FFF"/>
<g clip-path="url(#clip1_1134_32934)">
<path d="M49.9234 44.4733C49.9234 43.8229 49.3961 43.2988 48.7489 43.2988C48.0985 43.2988 47.5713 43.8261 47.5713 44.4733C47.5713 45.1205 48.0985 45.6478 48.7489 45.6478C49.3993 45.6478 49.9234 45.1237 49.9234 44.4733Z" fill="white"/>
<path d="M42.2825 44.4733C42.2825 43.8229 41.7553 43.2988 41.1081 43.2988C40.4608 43.2988 39.9336 43.8261 39.9336 44.4733C39.9336 45.1205 40.4608 45.6478 41.1081 45.6478C41.7553 45.6478 42.2825 45.1237 42.2825 44.4733Z" fill="white"/>
<path d="M44.8901 51.595C46.7118 51.595 48.1957 50.1111 48.1957 48.2894C48.1957 48.0179 47.9747 47.7969 47.7032 47.7969C47.4316 47.7969 47.2106 48.0179 47.2106 48.2894C47.2106 49.5681 46.1719 50.6068 44.8933 50.6068C43.6146 50.6068 42.5759 49.5681 42.5759 48.2894C42.5759 48.0179 42.3549 47.7969 42.0834 47.7969C41.8118 47.7969 41.5908 48.0179 41.5908 48.2894C41.5845 50.1111 43.0684 51.595 44.8901 51.595Z" fill="white"/>
<path d="M40.8331 58.8667C42.0076 59.2045 43.2389 59.4034 44.5113 59.4381C44.6533 59.4413 44.7922 59.4444 44.9343 59.4444C46.4813 59.4444 47.9936 59.2108 49.4302 58.7561V58.794C50.0774 58.5825 50.7372 58.3078 51.4034 57.9763V57.9732C51.5549 57.9006 51.7065 57.8216 51.8549 57.7427C52.2842 57.5122 52.7168 57.2596 53.1525 56.9723C53.926 56.4609 54.6585 55.8736 55.3372 55.2106C56.8969 53.6952 58.0808 51.9019 58.8449 49.9413C58.908 49.9539 58.9712 49.9602 59.0375 49.9602C60.9602 49.9602 62.523 48.3974 62.523 46.4747C62.523 44.8361 61.3864 43.4564 59.8583 43.087V36.1791C59.8583 35.6329 59.4163 35.1909 58.8701 35.1909C58.3239 35.1909 57.8819 35.6329 57.8819 36.1791V44.5141C57.8819 48.0407 56.4896 51.3399 53.9607 53.8025C51.4318 56.262 48.1041 57.5627 44.5618 57.468C37.9538 57.2881 32.5929 52.0534 32.0214 45.4013C33.9378 43.9489 35.0681 41.6979 35.0681 39.27C35.0681 38.5723 34.9734 37.8808 34.7903 37.2147C34.7903 37.1831 34.7871 37.1484 34.7871 37.1168C34.7871 35.8887 35.788 34.8878 37.0161 34.8878C37.2213 34.8878 37.4234 34.9162 37.6191 34.9699C40.3817 36.3212 43.3526 37.0031 46.4498 37.0031C53.5313 37.0031 60.1772 33.2145 63.7985 27.1148C64.01 26.7581 63.9785 26.3098 63.7164 25.9877C61.5664 23.3357 58.7375 21.3372 55.533 20.2069C55.0184 20.027 54.4532 20.2953 54.2733 20.8099C54.0902 21.3246 54.3617 21.8897 54.8763 22.0696C57.5157 23.001 59.8741 24.5954 61.7305 26.6981C58.3966 31.8538 52.6063 35.0267 46.4498 35.0267C43.8672 35.0267 41.3856 34.4995 39.0588 33.4576C39.002 33.4134 38.942 33.3724 38.8757 33.3408C38.2948 33.0535 37.6696 32.9083 37.0193 32.9083C34.7019 32.9083 32.8139 34.7931 32.8139 37.1136C32.8139 37.1642 32.817 37.2147 32.817 37.262C32.8107 37.3536 32.817 37.4483 32.836 37.543C32.8518 37.7103 32.8802 37.8777 32.9181 38.0419C32.9402 38.1334 32.9717 38.2187 33.0128 38.2944C33.0665 38.6133 33.0949 38.9385 33.0949 39.2637C33.0949 40.8517 32.4476 42.3356 31.3205 43.4059C30.105 42.1209 29.4136 40.4066 29.4136 38.6291C29.4136 36.097 30.7933 33.7639 33.0223 32.5389C33.5495 32.2484 33.9663 31.8222 34.2378 31.2792C34.2472 31.2602 34.2567 31.2381 34.2662 31.2192C36.833 25.0942 42.7811 21.1351 49.4207 21.1351C50.0079 21.1351 50.6015 21.1667 51.1824 21.2298C51.7254 21.2898 52.2116 20.8952 52.2685 20.3521C52.3253 19.8091 51.9338 19.3229 51.3908 19.2661C50.7404 19.1998 50.0774 19.165 49.4207 19.165C41.9824 19.165 35.3207 23.5977 32.4634 30.4236C32.3845 30.5814 32.2487 30.7172 32.0688 30.8151C29.2147 32.3842 27.4404 35.3803 27.4404 38.6322C27.4404 40.3908 27.9644 42.102 28.9211 43.548C27.9487 44.1763 27.333 45.2623 27.333 46.4779C27.333 48.4006 28.8958 49.9634 30.8185 49.9634C30.9101 49.9634 30.9985 49.9508 31.0806 49.9287C32.5297 53.591 35.3302 56.5398 38.8567 58.1373V58.15C39.3682 58.3836 40.0344 58.6488 40.83 58.8824V58.8667H40.8331ZM59.8457 45.2024C60.2688 45.4707 60.5529 45.9411 60.5529 46.481C60.5529 47.163 60.0983 47.7439 59.4732 47.9302C59.6784 47.0398 59.8047 46.1274 59.8457 45.2024ZM29.3062 46.4779C29.3062 45.938 29.5872 45.4549 30.0292 45.1866C30.0861 46.1306 30.2281 47.0525 30.446 47.9396C29.7925 47.7755 29.3062 47.1819 29.3062 46.4779Z" fill="white"/>
<path opacity="0.5" d="M39.6383 48.1663C40.1056 48.1663 40.4876 47.7875 40.4876 47.3171C40.4876 46.8498 40.1088 46.4678 39.6383 46.4678C39.1711 46.4678 38.7891 46.8466 38.7891 47.3171C38.7891 47.7875 39.1679 48.1663 39.6383 48.1663Z" fill="white"/>
<path opacity="0.5" d="M50.1432 48.1673C50.6105 48.1673 50.9925 47.7885 50.9925 47.318C50.9925 46.8508 50.6136 46.4688 50.1432 46.4688C49.676 46.4688 49.2939 46.8476 49.2939 47.318C49.2939 47.7885 49.6728 48.1673 50.1432 48.1673Z" fill="white"/>
<path d="M41.9863 42.0075C42.2578 42.0075 42.4788 41.7865 42.4788 41.515C42.4788 41.2435 42.2578 41.0225 41.9863 41.0225H39.0912C38.8196 41.0225 38.5986 41.2435 38.5986 41.515C38.5986 41.7865 38.8196 42.0075 39.0912 42.0075H41.9863Z" fill="white"/>
<path d="M51.1858 41.515C51.1858 41.2435 50.9648 41.0225 50.6933 41.0225H47.7982C47.5267 41.0225 47.3057 41.2435 47.3057 41.515C47.3057 41.7865 47.5267 42.0075 47.7982 42.0075H50.6933C50.968 42.0075 51.1858 41.7865 51.1858 41.515Z" fill="white"/>
</g>
<defs>
<clipPath id="clip0_1134_32934">
<rect width="39.2871" height="34.5982" fill="white" transform="translate(237.288 21.2939)"/>
</clipPath>
<clipPath id="clip1_1134_32934">
<rect width="36.6044" height="40.2794" fill="white" transform="translate(27.332 19.1641)"/>
</clipPath>
</defs>
</svg>
