<svg width="159" height="573" viewBox="0 0 159 573" fill="none" xmlns="http://www.w3.org/2000/svg">
<g clip-path="url(#clip0_1134_32575)">
<path d="M44.758 20.3059H76.7747C77.4743 20.3059 78.0375 19.7426 78.0375 19.043V7.57731C78.0375 6.87774 77.4743 6.31445 76.7747 6.31445H44.758C44.0584 6.31445 43.4951 6.87774 43.4951 7.57731V19.043C43.4951 19.7426 44.0584 20.3059 44.758 20.3059ZM46.0208 8.84017H75.5118V17.7801H46.0208V8.84017Z" fill="#292C31"/>
<path d="M102.502 75.2451C112.914 75.2451 121.355 66.8048 121.355 56.3931C121.355 45.9814 112.914 37.541 102.502 37.541C92.0907 37.541 83.6504 45.9814 83.6504 56.3931C83.6504 66.8048 92.0907 75.2451 102.502 75.2451Z" stroke="#292C31" stroke-width="2.7256" stroke-miterlimit="10"/>
<path d="M103.749 76.3985H101.214V78.3337V80.7958H38.8158V2.52572H82.916V19.0429C82.916 19.7424 83.4793 20.3057 84.1788 20.3057H101.214V36.6411H103.74V19.17C103.794 18.6704 103.603 18.3069 103.267 18.0526L85.0601 0.354328C84.8239 0.127195 84.4423 0 84.1788 0H37.5529C36.8533 0 36.29 0.56329 36.29 1.26286V82.0587C36.29 82.7583 36.8533 83.3216 37.5529 83.3216H102.477C103.176 83.3216 103.74 82.7583 103.74 82.0587V78.3337H103.749V76.3985ZM85.4417 4.25193L99.3604 17.78H85.4417V4.25193Z" fill="#292C31"/>
<path d="M44.9932 71.4375H76.6101" stroke="#292C31" stroke-width="2.45304" stroke-miterlimit="10" stroke-linecap="round"/>
<path d="M44.9932 60.9902H76.6101" stroke="#292C31" stroke-width="2.45304" stroke-miterlimit="10" stroke-linecap="round"/>
<path d="M44.9932 50.5508H76.6101" stroke="#292C31" stroke-width="2.45304" stroke-miterlimit="10" stroke-linecap="round"/>
<path d="M44.9932 40.1113H81.0438" stroke="#292C31" stroke-width="2.45304" stroke-miterlimit="10" stroke-linecap="round"/>
<path d="M44.9932 29.6641H92.4004" stroke="#292C31" stroke-width="2.45304" stroke-miterlimit="10" stroke-linecap="round"/>
<path d="M92.4902 56.3926H112.505" stroke="#292C31" stroke-width="2.45304" stroke-miterlimit="10" stroke-linecap="round"/>
<path d="M102.504 46.3809V66.3958" stroke="#292C31" stroke-width="2.45304" stroke-miterlimit="10" stroke-linecap="round"/>
</g>
<path d="M39.2283 111.932H35.2143V106.316H39.2283V111.932ZM33.7383 111.932H31.2723V113.138H43.1703V111.932H40.7043V106.316H43.2063V105.128H31.2363V106.316H33.7383V111.932ZM29.9403 116.36V117.584H44.5743V116.36H29.9403ZM54.0449 116.45V113.408H59.2109V112.22H49.2749V109.61H58.8329V104.696H47.7809V105.902H57.3929V108.422H47.8169V113.408H52.5509V116.45H45.9809V117.656H60.6509V116.45H54.0449ZM68.7175 107.666V108.872H71.1475V113.264H72.5515V103.868H71.1475V107.666H68.7175ZM69.9775 111.482C67.9615 110.618 66.8275 108.71 66.8275 106.928V106.028H69.5995V104.822H62.4355V106.028H65.4055V106.946C65.4055 108.872 64.2175 110.96 62.1295 111.86L62.9035 112.994C64.4695 112.292 65.5855 110.96 66.1435 109.394C66.7015 110.798 67.7635 111.968 69.2395 112.616L69.9775 111.482ZM64.8295 115.298H74.2075V119.672H75.6835V114.11H64.8295V115.298ZM74.2615 103.526V113.39H75.6835V103.526H74.2615ZM91.0761 112.22H81.4821V109.664H90.5541V108.494H81.4821V106.1H90.9141V104.912H79.9881V113.408H91.0761V112.22ZM78.0981 116.36V117.566H92.7501V116.36H78.0981ZM111.256 108.458H101.662V105.344H111.148V104.156H100.186V109.646H111.256V108.458ZM105.64 118.484C103.102 118.484 101.608 117.854 101.608 116.72C101.608 115.586 103.102 114.956 105.64 114.956C108.178 114.956 109.672 115.586 109.672 116.72C109.672 117.854 108.16 118.484 105.64 118.484ZM105.64 113.804C102.202 113.804 100.114 114.848 100.114 116.72C100.114 118.592 102.202 119.636 105.64 119.636C109.078 119.636 111.166 118.592 111.166 116.72C111.166 114.848 109.078 113.804 105.64 113.804ZM98.3505 111.194V112.418H112.966V111.194H98.3505ZM116.029 116.036H125.785V119.51H127.261V114.83H116.029V116.036ZM122.473 112.382V110.69H127.513V109.538H117.739V107.846H127.171V103.922H116.245V105.074H125.713V106.748H116.281V110.69H120.979V112.382H114.391V113.588H129.043V112.382H122.473Z" fill="#292C31"/>
<path d="M92.4333 162.289L79.4999 175.223L66.5666 162.289C65.2666 160.989 63.1666 160.989 61.8666 162.289C60.5666 163.589 60.5666 165.689 61.8666 166.989L77.1666 182.289C78.4666 183.589 80.5666 183.589 81.8666 182.289L97.1666 166.989C98.4666 165.689 98.4666 163.589 97.1666 162.289C95.8666 161.023 93.7333 160.989 92.4333 162.289Z" fill="#38B949"/>
<g clip-path="url(#clip1_1134_32575)">
<path d="M56.7759 247.496L60.1374 252.348C60.3555 252.657 60.7007 252.856 61.0732 252.884C61.4639 252.911 61.8273 252.766 62.0817 252.493L69.9678 244.198C70.4493 243.689 70.4311 242.89 69.9223 242.417C69.4136 241.936 68.6141 241.954 68.1416 242.463L61.3185 249.631L58.8473 246.052C58.4476 245.479 57.6662 245.334 57.0939 245.734C56.5215 246.133 56.3761 246.924 56.7759 247.496Z" fill="#2A2C31"/>
<path d="M75.3027 246.088H103.594" stroke="#2A2C31" stroke-width="2.45304" stroke-miterlimit="10" stroke-linecap="round"/>
<path d="M75.3027 251.131H103.594" stroke="#2A2C31" stroke-width="2.45304" stroke-miterlimit="10" stroke-linecap="round"/>
<path d="M75.3027 264.822H103.594" stroke="#2A2C31" stroke-width="2.45304" stroke-miterlimit="10" stroke-linecap="round"/>
<path d="M75.3027 269.855H103.594" stroke="#2A2C31" stroke-width="2.45304" stroke-miterlimit="10" stroke-linecap="round"/>
<path d="M111.88 228.961H101.268H98.9875H93.7906V231.232H101.268H110.617V301.598H79.4177H48.3822V231.232H58.4396H65.9169V228.961H60.0114H58.4396H47.1193C46.4197 228.961 45.8564 229.47 45.8564 230.097V302.734C45.8564 303.361 46.4197 303.869 47.1193 303.869H79.4177H79.5812H111.88C112.579 303.869 113.142 303.361 113.142 302.734V230.097C113.142 229.47 112.579 228.961 111.88 228.961Z" fill="#2A2C31"/>
<path d="M65.917 232.678V224.565H74.0029C74.0029 224.565 74.7479 220.549 79.1725 220.549C79.1725 220.549 83.1064 220.549 84.5601 224.565H92.8732V232.678H65.917Z" stroke="#2A2C31" stroke-width="2.45304" stroke-miterlimit="10" stroke-linecap="round" stroke-linejoin="round"/>
<path d="M65.6879 263.268H57.7383V271.217H65.6879V263.268Z" stroke="#2A2C31" stroke-width="2.45304" stroke-miterlimit="10" stroke-linecap="round" stroke-linejoin="round"/>
<path d="M75.3027 285.59H103.594" stroke="#2A2C31" stroke-width="2.45304" stroke-miterlimit="10" stroke-linecap="round"/>
<path d="M75.3027 290.623H103.594" stroke="#2A2C31" stroke-width="2.45304" stroke-miterlimit="10" stroke-linecap="round"/>
<path d="M65.6879 284.037H57.7383V291.987H65.6879V284.037Z" stroke="#2A2C31" stroke-width="2.45304" stroke-miterlimit="10" stroke-linecap="round" stroke-linejoin="round"/>
</g>
<path d="M6.73466 333.111C7.40066 333.273 8.17466 333.363 8.96666 333.363C9.77666 333.363 10.5507 333.273 11.2347 333.111V336.909H6.73466V333.111ZM8.96666 326.235C11.5587 326.235 13.4307 327.423 13.4307 329.223C13.4307 331.023 11.5587 332.211 8.96666 332.211C6.37466 332.211 4.52066 331.023 4.52066 329.223C4.52066 327.423 6.37466 326.235 8.96666 326.235ZM12.7107 336.909V332.535C14.0427 331.833 14.8347 330.681 14.8347 329.223C14.8347 326.703 12.4047 325.083 8.96666 325.083C5.54666 325.083 3.09866 326.703 3.09866 329.223C3.09866 330.681 3.90866 331.851 5.25866 332.553V336.909H1.65866V338.133H16.3287V336.909H12.7107ZM32.3513 332.049H29.9573C30.4073 329.727 30.4073 328.017 30.4073 326.505V325.101H19.5713V326.289H28.9673V326.505C28.9673 328.017 28.9673 329.727 28.4633 332.049H17.7533V333.255H24.2693V340.221H25.7633V333.255H32.3513V332.049ZM39.2118 325.461H37.7538V328.359C37.7538 331.293 35.9178 334.389 33.5958 335.577L34.4778 336.765C36.2958 335.793 37.7898 333.777 38.4918 331.419C39.2298 333.633 40.6878 335.523 42.3978 336.441L43.3158 335.271C41.0478 334.137 39.2118 331.203 39.2118 328.359V325.461ZM48.8778 330.609H46.2138V324.075H44.7378V340.203H46.2138V331.833H48.8778V330.609ZM59.4284 325.875H55.3964V323.913H53.9204V325.875H49.9064V327.063H59.4284V325.875ZM52.2104 330.717C52.2104 329.673 53.1824 328.989 54.6584 328.989C56.1344 328.989 57.1244 329.673 57.1244 330.717C57.1244 331.779 56.1344 332.463 54.6584 332.463C53.1824 332.463 52.2104 331.779 52.2104 330.717ZM58.5284 330.717C58.5284 328.989 56.9624 327.873 54.6584 327.873C52.3544 327.873 50.8064 328.989 50.8064 330.717C50.8064 332.463 52.3544 333.579 54.6584 333.579C56.9624 333.579 58.5284 332.463 58.5284 330.717ZM57.3224 339.051C54.9644 339.051 53.5244 338.439 53.5244 337.395C53.5244 336.351 54.9644 335.739 57.3224 335.739C59.6804 335.739 61.1204 336.351 61.1204 337.395C61.1204 338.439 59.6804 339.051 57.3224 339.051ZM57.3224 334.605C54.0644 334.605 52.0664 335.613 52.0664 337.395C52.0664 339.159 54.0644 340.185 57.3224 340.185C60.5624 340.185 62.5784 339.159 62.5784 337.395C62.5784 335.613 60.5624 334.605 57.3224 334.605ZM62.3804 328.539V324.057H60.9044V334.443H62.3804V329.763H64.7564V328.539H62.3804ZM79.6808 325.533H75.7928V323.949H74.3168V325.533H70.4108V326.649H79.6808V325.533ZM72.6788 329.637C72.6788 328.791 73.5968 328.269 75.0548 328.269C76.4768 328.269 77.4128 328.791 77.4128 329.637C77.4128 330.483 76.4768 331.023 75.0548 331.023C73.5968 331.023 72.6788 330.483 72.6788 329.637ZM80.1668 332.733C78.7628 332.949 77.2688 333.057 75.7928 333.129V332.013C77.6468 331.815 78.8168 330.951 78.8168 329.637C78.8168 328.161 77.3048 327.243 75.0548 327.243C72.7688 327.243 71.2748 328.161 71.2748 329.637C71.2748 330.969 72.4448 331.833 74.3168 332.013V333.183C72.7688 333.237 71.2928 333.237 70.0148 333.237L70.1768 334.425C73.0028 334.407 76.8188 334.389 80.2748 333.795L80.1668 332.733ZM71.9768 336.873H81.1208V340.203H82.5968V335.703H71.9768V336.873ZM84.9548 328.953H82.5968V324.075H81.1208V334.893H82.5968V330.177H84.9548V328.953ZM99.3934 324.075H97.9174V335.865H99.3934V324.075ZM87.9634 329.151C87.9634 327.585 89.1514 326.469 90.7174 326.469C92.3194 326.469 93.5074 327.585 93.5074 329.151C93.5074 330.753 92.3194 331.869 90.7174 331.869C89.1514 331.869 87.9634 330.753 87.9634 329.151ZM94.9474 329.151C94.9474 326.829 93.1294 325.191 90.7174 325.191C88.3234 325.191 86.5234 326.829 86.5234 329.151C86.5234 331.491 88.3234 333.147 90.7174 333.147C93.1294 333.147 94.9474 331.491 94.9474 329.151ZM90.4834 338.637V334.659H89.0074V339.843H99.8794V338.637H90.4834ZM119.61 324.057H118.134V333.327H119.61V324.057ZM113.328 330.519H108.666V326.271H113.328V330.519ZM114.768 325.101H107.226V331.707H114.768V325.101ZM119.988 335.559V334.425H115.254V332.859H113.76V334.425H109.026V335.559H113.742C113.724 337.161 111.15 338.691 108.396 339.015L108.882 340.149C111.312 339.807 113.544 338.727 114.516 337.197C115.47 338.691 117.63 339.807 120.06 340.149L120.564 339.015C117.792 338.673 115.29 337.107 115.272 335.559H119.988ZM135.938 331.653C133.616 330.861 132.032 328.845 132.032 326.667V324.885H130.556V326.541C130.556 329.007 128.99 331.203 126.542 332.085L127.316 333.255C129.206 332.535 130.646 331.059 131.312 329.169C132.032 330.825 133.418 332.157 135.164 332.805L135.938 331.653ZM134.012 339.033C131.618 339.033 130.16 338.367 130.16 337.251C130.16 336.117 131.618 335.451 134.012 335.451C136.388 335.451 137.846 336.117 137.846 337.251C137.846 338.367 136.388 339.033 134.012 339.033ZM134.012 334.299C130.718 334.299 128.684 335.361 128.684 337.251C128.684 339.123 130.718 340.185 134.012 340.185C137.288 340.185 139.322 339.123 139.322 337.251C139.322 335.361 137.288 334.299 134.012 334.299ZM139.142 328.233V324.075H137.666V333.849H139.142V329.457H141.536V328.233H139.142ZM152.015 330.537C149.909 330.951 148.073 331.077 144.887 331.077V326.325H150.521V325.137H143.411V332.301H144.671C148.055 332.301 149.963 332.175 152.177 331.725L152.015 330.537ZM146.507 335.235H153.743V338.781H146.507V335.235ZM145.067 339.969H155.201V334.065H145.067V339.969ZM157.595 327.999H155.201V324.039H153.725V333.201H155.201V329.223H157.595V327.999Z" fill="#292C31"/>
<path d="M92.4333 382.836L79.4999 395.77L66.5666 382.836C65.2666 381.536 63.1666 381.536 61.8666 382.836C60.5666 384.136 60.5666 386.236 61.8666 387.536L77.1666 402.836C78.4666 404.136 80.5666 404.136 81.8666 402.836L97.1666 387.536C98.4666 386.236 98.4666 384.136 97.1666 382.836C95.8666 381.57 93.7333 381.536 92.4333 382.836Z" fill="#38B949"/>
<g clip-path="url(#clip2_1134_32575)">
<path d="M121.162 497.634C121.162 497.625 121.162 497.625 121.162 497.616V452.862C121.162 450.581 119.308 448.719 117.037 448.719H41.974C39.6935 448.719 37.8311 450.572 37.8311 452.862V508.11C37.8311 510.381 39.6935 512.234 41.974 512.234H69.13L65.0507 520.811H60.8805C60.181 520.811 59.6177 521.374 59.6177 522.074V530.777C59.6177 531.477 60.181 532.04 60.8805 532.04H98.1213C98.8209 532.04 99.3842 531.477 99.3842 530.777V522.074C99.3842 521.374 98.8209 520.811 98.1213 520.811H93.9511L89.8718 512.234H117.028C119.308 512.234 121.153 510.381 121.153 508.11V497.652C121.153 497.643 121.162 497.643 121.162 497.634ZM96.8584 529.515H62.1343V523.337C76.9979 523.337 81.3316 523.337 96.8494 523.337V529.515H96.8584ZM67.8399 520.82L71.9101 512.243H87.0735L91.1438 520.82H67.8399ZM41.974 451.244H117.028C117.909 451.244 118.627 451.971 118.627 452.862V496.371H40.3568V452.862C40.3568 451.971 41.0836 451.244 41.974 451.244ZM117.028 509.709H41.974C41.0836 509.709 40.3568 508.991 40.3568 508.11V498.897H118.627V508.11C118.627 508.991 117.909 509.709 117.028 509.709Z" fill="#292C31"/>
<path d="M79.4986 499.986C77.1909 499.986 75.3193 501.858 75.3193 504.166C75.3193 506.473 77.1909 508.345 79.4986 508.345C81.8063 508.345 83.6778 506.473 83.6778 504.166C83.6778 501.858 81.8063 499.986 79.4986 499.986ZM79.4986 505.828C78.581 505.828 77.8451 505.083 77.8451 504.175C77.8451 503.257 78.5901 502.521 79.4986 502.521C80.4162 502.521 81.1521 503.266 81.1521 504.175C81.1521 505.083 80.4162 505.828 79.4986 505.828Z" fill="#292C31"/>
<path d="M46.8388 485.633H68.6709C69.3705 485.633 69.9338 485.069 69.9338 484.37V481.571C69.9338 476.974 66.4268 473.177 61.9478 472.731C63.8193 471.432 65.0458 469.279 65.0458 466.844C65.0458 462.892 61.8115 459.676 57.8412 459.676C53.8709 459.676 50.6456 462.892 50.6456 466.844C50.6456 469.279 51.8721 471.423 53.7346 472.722C49.1738 473.095 45.5851 476.92 45.5851 481.571V484.37C45.576 485.069 46.1393 485.633 46.8388 485.633ZM57.8412 462.192C60.4214 462.192 62.5201 464.273 62.5201 466.835C62.5201 469.397 60.4214 471.478 57.8412 471.478C55.2609 471.478 53.1622 469.397 53.1622 466.835C53.1622 464.273 55.2609 462.192 57.8412 462.192ZM48.1017 481.571C48.1017 478.064 50.9545 475.203 54.4705 475.203H61.0483C64.5552 475.203 67.4171 478.055 67.4171 481.571V483.107H48.1017V481.571Z" fill="#292C31"/>
<path d="M46.8351 491.883H68.6672C69.3667 491.883 69.93 491.32 69.93 490.62C69.93 489.921 69.3667 489.357 68.6672 489.357H46.8351C46.1356 489.357 45.5723 489.921 45.5723 490.62C45.5723 491.32 46.1356 491.883 46.8351 491.883Z" fill="#292C31"/>
<path d="M110.441 474.92L101.401 480.844C101.065 481.062 100.974 481.507 101.192 481.843C101.41 482.179 101.856 482.27 102.192 482.052L111.195 476.147C111.713 475.847 112.295 476.119 112.558 476.683C112.849 477.31 112.631 478.109 112.049 478.436L97.1312 488.039C96.2863 488.566 95.2869 488.684 94.3693 488.348L86.5741 485.559C86.4832 485.532 86.3924 485.514 86.3015 485.514L83.8212 485.614V475.147C85.2385 474.811 89.2361 474.112 90.9805 476.337C91.353 476.81 91.9253 477.073 92.5704 477.073H99.2935C99.8659 477.073 100.338 477.637 100.338 478.327C100.338 479.018 99.875 479.581 99.2935 479.581H92.8884C92.1888 479.581 91.5438 479.99 91.1985 480.653C90.826 481.362 90.8714 482.207 91.353 482.888C91.5801 483.215 92.0162 483.27 92.3433 483.042C92.6703 482.815 92.7339 482.343 92.5068 482.025C92.3433 481.789 92.3887 481.507 92.4795 481.325C92.5159 481.253 92.6522 481.035 92.8975 481.035H99.3026C100.675 481.035 101.783 479.826 101.783 478.336C101.783 476.846 100.665 475.638 99.3026 475.638H92.5795C92.4886 475.638 92.2524 475.62 92.1252 475.456C89.9811 472.731 85.7201 473.276 83.8303 473.685V472.667C83.8303 472.267 83.5032 471.949 83.1126 471.949H76.1259C75.7262 471.949 75.4082 472.276 75.4082 472.667V487.839C75.4082 488.239 75.7353 488.557 76.1259 488.557H83.1126C83.5123 488.557 83.8303 488.23 83.8303 487.839V487.085L86.2288 486.985L93.8969 489.729C95.2687 490.22 96.7224 490.02 97.9126 489.284C106.044 484.196 101.456 487.14 112.813 479.69C114.012 478.999 114.484 477.428 113.885 476.11C113.276 474.793 111.777 474.157 110.441 474.92ZM82.3857 487.104H76.8437V473.367H82.3857V487.104Z" fill="#292C31" stroke="#292C31" stroke-width="0.908533" stroke-miterlimit="10"/>
<path d="M96.7601 466.643C103.514 466.643 108.989 461.168 108.989 454.414C108.989 447.661 103.514 442.186 96.7601 442.186C90.0063 442.186 84.5312 447.661 84.5312 454.414C84.5312 461.168 90.0063 466.643 96.7601 466.643Z" fill="white"/>
<path d="M96.434 468.824C104.384 468.824 110.852 462.328 110.852 454.351C110.852 446.374 104.384 439.869 96.434 439.869C88.4844 439.869 82.0156 446.365 82.0156 454.342C82.0156 462.319 88.4844 468.824 96.434 468.824ZM96.434 442.395C102.994 442.395 108.327 447.755 108.327 454.351C108.327 460.938 102.994 466.307 96.434 466.307C89.8744 466.307 84.5413 460.947 84.5413 454.351C84.5413 447.755 89.8744 442.395 96.434 442.395Z" fill="#292C31"/>
<path d="M91.79 457.83L90.0547 459.92C91.7809 461.437 93.7342 462.31 95.9147 462.537V464.29H97.4411V462.564C99.0583 462.482 100.357 462.001 101.348 461.128C102.329 460.247 102.829 459.111 102.829 457.712C102.829 456.313 102.402 455.241 101.539 454.514C100.685 453.778 99.3399 453.197 97.5137 452.761H97.432V448.245C98.6585 448.418 99.7942 448.881 100.839 449.635L102.383 447.428C100.83 446.356 99.1764 445.756 97.432 445.629V444.402H95.9056V445.602C94.3702 445.683 93.1164 446.165 92.1534 447.037C91.1904 447.918 90.7088 449.045 90.7088 450.426C90.7088 451.807 91.1268 452.852 91.9626 453.56C92.7985 454.269 94.1067 454.832 95.9056 455.259V459.911C94.4974 459.693 93.1164 459.002 91.79 457.83ZM97.432 455.677C98.3859 455.968 99.0401 456.277 99.3853 456.604C99.7306 456.931 99.9123 457.376 99.9123 457.93C99.9123 458.494 99.6851 458.957 99.249 459.32C98.8039 459.693 98.2042 459.911 97.4411 459.993V455.677H97.432ZM94.0977 451.416C93.7797 451.107 93.6252 450.68 93.6252 450.144C93.6252 449.608 93.8251 449.163 94.2339 448.8C94.6428 448.436 95.197 448.227 95.9147 448.164V452.316C95.0153 452.034 94.4156 451.734 94.0977 451.416Z" fill="#292C31"/>
</g>
<path d="M57.7709 552.243V560.901H59.2469V552.243H57.7709ZM48.8429 561.693V568.155H59.2469V561.693H57.7889V563.673H50.3009V561.693H48.8429ZM50.3009 564.825H57.7889V566.967H50.3009V564.825ZM50.5709 552.999C48.1409 552.999 46.3769 554.511 46.3769 556.707C46.3769 558.939 48.1409 560.433 50.5709 560.433C53.0189 560.433 54.8009 558.939 54.8009 556.707C54.8009 554.511 53.0189 552.999 50.5709 552.999ZM50.5709 554.223C52.2089 554.223 53.3609 555.249 53.3609 556.707C53.3609 558.183 52.2089 559.209 50.5709 559.209C48.9689 559.209 47.8169 558.183 47.8169 556.707C47.8169 555.249 48.9689 554.223 50.5709 554.223ZM71.5435 559.209C69.2035 558.633 67.5655 557.085 67.5655 555.339V555.069H71.1295V553.881H67.5655V552.153H66.0895V553.881H62.5075V555.069H66.0895V555.339C66.0895 557.265 64.3975 558.885 62.0035 559.515L62.6695 560.649C64.6135 560.109 66.1435 558.957 66.8455 557.391C67.5835 558.795 69.0595 559.857 70.9135 560.343L71.5435 559.209ZM65.8195 565.329H74.5855V561.549H64.3255V562.701H73.1275V564.231H64.3795V568.191H75.1795V567.039H65.8195V565.329ZM74.5855 555.825V552.243H73.1095V560.757H74.5855V557.049H76.9795V555.825H74.5855ZM83.7319 559.371C86.3419 558.975 88.7179 557.679 89.5999 555.807C90.4639 557.679 92.8399 558.975 95.4679 559.371L96.0079 558.183C93.1639 557.805 90.5539 556.203 90.5539 554.241V554.223H95.5759V553.035H83.6239V554.223H88.6459V554.241C88.6459 556.203 86.0359 557.805 83.1739 558.183L83.7319 559.371ZM85.6039 563.439H84.1279V568.011H95.2879V566.805H85.6039V563.439ZM82.2559 560.541V561.729H88.9699V565.005H90.4459V561.729H96.9079V560.541H82.2559ZM110.086 552.225V568.389H111.562V552.225H110.086ZM99.2685 553.593V564.483H106.864V553.593H105.406V557.859H100.726V553.593H99.2685ZM100.726 559.029H105.406V563.277H100.726V559.029Z" fill="#292C31"/>
<defs>
<clipPath id="clip0_1134_32575">
<rect width="86.4197" height="83.3216" fill="white" transform="translate(36.29)"/>
</clipPath>
<clipPath id="clip1_1134_32575">
<rect width="67.286" height="84.5481" fill="white" transform="translate(45.8574 219.322)"/>
</clipPath>
<clipPath id="clip2_1134_32575">
<rect width="83.3307" height="92.1707" fill="white" transform="translate(37.835 439.869)"/>
</clipPath>
</defs>
</svg>
