<svg width="38" height="38" viewBox="0 0 38 38" fill="none" xmlns="http://www.w3.org/2000/svg">
<path d="M4.16602 19.0013C4.16602 10.8136 10.8116 4.16797 18.9994 4.16797C27.1871 4.16797 33.8327 10.8136 33.8327 19.0013C33.8327 27.189 27.1871 33.8346 18.9994 33.8346C10.8116 33.8346 4.16602 27.189 4.16602 19.0013ZM8.31724 20.8167L14.0014 26.5009C15.0026 27.5021 16.6524 27.5171 17.6521 26.4969L29.6656 14.4834C30.6737 13.4754 30.6737 11.8447 29.6656 10.8367C28.6576 9.82867 27.0269 9.82867 26.0189 10.8367L15.8315 21.0241L11.964 17.17L11.2569 17.8771L11.9627 17.1688L11.9632 17.1693C10.9551 16.162 9.32501 16.1623 8.31724 17.17C7.30922 18.1781 7.30922 19.8087 8.31724 20.8167Z" fill="#38B949" stroke="#38B949" stroke-width="2"/>
</svg>
