<svg width="25" height="24" viewBox="0 0 25 24" fill="none" xmlns="http://www.w3.org/2000/svg">
<path d="M12.998 2C7.47805 2 2.99805 6.48 2.99805 12C2.99805 17.52 7.47805 22 12.998 22C18.518 22 22.998 17.52 22.998 12C22.998 6.48 18.518 2 12.998 2ZM10.288 16.29L6.69805 12.7C6.30805 12.31 6.30805 11.68 6.69805 11.29C7.08805 10.9 7.71805 10.9 8.10805 11.29L10.998 14.17L17.878 7.29C18.268 6.9 18.898 6.9 19.288 7.29C19.678 7.68 19.678 8.31 19.288 8.7L11.698 16.29C11.318 16.68 10.678 16.68 10.288 16.29Z" fill="#38B949"/>
</svg>
