<svg width="744" height="516" viewBox="0 0 744 516" fill="none" xmlns="http://www.w3.org/2000/svg">
<circle cx="362.5" cy="410" r="106" fill="#38B949"/>
<path d="M360.274 416.945L385.374 416.953L385.372 429.567L365.384 429.562V432.106L385.354 432.111L385.369 437.134L360.27 437.126L360.272 424.416L380.235 424.465V422.116L360.272 422.089L360.274 416.945Z" fill="white"/>
<path d="M423.079 398.499L423.081 388.455H418.078L418.068 423.654H423.072L423.076 403.487L428.08 403.49L428.082 398.499H423.079Z" fill="white"/>
<path d="M375.338 406.805C381.103 405.671 385.451 400.606 385.451 394.526C385.453 387.61 379.832 382.002 372.896 382C365.96 381.998 360.336 387.602 360.334 394.518C360.331 400.559 364.62 405.6 370.328 406.783V409.762L357.709 409.76L357.706 414.66L387.928 414.667L387.93 409.767L375.338 409.765V406.805ZM365.577 394.521C365.577 390.491 368.854 387.225 372.896 387.228C376.937 387.228 380.213 390.496 380.21 394.526C380.21 398.555 376.933 401.821 372.891 401.819C368.849 401.816 365.574 398.548 365.577 394.521Z" fill="white"/>
<path d="M393.06 393.468L413.075 393.473L413.07 411.179L398.157 411.174L398.09 418.546L413.067 418.581L413.065 423.601L393.05 423.596L393.055 406.274L407.913 406.277L407.958 398.479L393.057 398.474L393.06 393.468Z" fill="white"/>
<path d="M325.127 413.925H331.292C331.623 413.925 331.893 413.656 331.893 413.326V408.204C331.893 407.874 331.623 407.605 331.292 407.605H325.127C324.796 407.605 324.526 407.874 324.526 408.204V413.326C324.526 413.656 324.796 413.925 325.127 413.925Z" fill="white"/>
<path d="M325.127 425.446H331.292C331.623 425.446 331.893 425.177 331.893 424.847V417.507C331.893 417.177 331.623 416.908 331.292 416.908H325.127C324.796 416.908 324.526 417.177 324.526 417.507V424.847C324.526 425.177 324.796 425.446 325.127 425.446Z" fill="white"/>
<path d="M306.577 399.568H312.742C313.073 399.568 313.343 399.299 313.343 398.969V393.85C313.343 393.52 313.073 393.251 312.742 393.251H306.577C306.246 393.251 305.977 393.52 305.977 393.85V398.972C305.977 399.299 306.246 399.568 306.577 399.568Z" fill="white"/>
<path d="M350.08 402.072C349.788 401.126 349.116 400.507 348.359 399.918C342.499 395.346 336.648 390.764 330.806 386.165C329.608 385.221 328.288 384.706 326.755 384.709C318.976 384.711 311.194 384.706 303.415 384.706C303.027 384.706 302.637 384.726 302.253 384.797C299.393 385.339 297.51 387.617 297.51 390.528C297.505 403.295 297.502 416.062 297.5 428.829C297.5 429.108 297.51 429.389 297.53 429.667C297.727 432.514 300.231 434.853 303.094 434.853C310.366 434.858 317.639 434.858 324.911 434.86C332.107 434.863 339.305 434.865 346.501 434.865C346.837 434.865 347.17 434.853 347.499 434.777C349.163 434.39 350.263 432.938 350.263 431.107C350.268 421.852 350.268 412.597 350.273 403.342C350.27 402.91 350.208 402.489 350.08 402.072ZM301.984 409.757C301.987 403.369 301.987 396.98 301.989 390.592C301.989 389.665 302.473 389.17 303.398 389.17C311.189 389.17 318.978 389.172 326.77 389.177C327.704 389.177 328.184 389.665 328.184 390.592C328.184 394.136 328.186 397.68 328.174 401.225C328.174 401.53 328.265 401.584 328.547 401.584C331.162 401.575 333.778 401.579 336.393 401.579C337.409 401.579 337.876 402.045 337.876 403.061C337.874 411.68 337.866 420.299 337.879 428.918C337.881 429.818 337.355 430.417 336.363 430.414C325.373 430.392 314.386 430.397 303.395 430.394C302.456 430.394 301.979 429.921 301.979 428.99C301.979 422.576 301.982 416.168 301.984 409.757Z" fill="white"/>
<path d="M331.292 407.605H325.127C324.796 407.605 324.526 407.874 324.526 408.204V413.326C324.526 413.656 324.796 413.925 325.127 413.925H331.292C331.623 413.925 331.893 413.656 331.893 413.326V408.204C331.893 407.874 331.623 407.605 331.292 407.605Z" fill="white"/>
<path d="M312.74 393.251H306.577C306.246 393.251 305.977 393.52 305.977 393.85V398.972C305.977 399.302 306.246 399.57 306.577 399.57H312.742C313.073 399.57 313.343 399.302 313.343 398.972V393.85C313.34 393.52 313.071 393.251 312.74 393.251Z" fill="white"/>
<path d="M331.292 416.91H325.127C324.796 416.91 324.526 417.179 324.526 417.509V424.849C324.526 425.179 324.796 425.448 325.127 425.448H331.292C331.623 425.448 331.893 425.179 331.893 424.849V417.509C331.893 417.179 331.623 416.91 331.292 416.91Z" fill="white"/>
<circle cx="106.5" cy="106" r="106" fill="#458FFF"/>
<circle cx="602.5" cy="106" r="106" fill="#458FFF"/>
<g clip-path="url(#clip0_1134_32291)">
<path d="M648.75 116.39C648.31 117.05 647.71 117.28 646.91 117.28C642.56 117.26 638.2 117.27 633.85 117.27C632.43 117.27 631.96 116.8 631.96 115.38C631.96 98.8995 631.96 82.4195 631.96 65.9395C631.96 64.5595 632.41 64.0995 633.79 64.0995C638.11 64.0995 642.44 64.1095 646.76 64.0795C647.56 64.0695 648.23 64.2395 648.75 64.8595C648.75 82.0395 648.75 99.2095 648.75 116.39ZM634.92 94.9395C634.92 95.8595 634.92 96.7095 634.92 97.6295C636.75 97.6295 638.51 97.6295 640.32 97.6295C640.32 98.6195 640.32 99.5295 640.32 100.55C638.47 100.55 636.68 100.55 634.91 100.55C634.91 101.48 634.91 102.31 634.91 103.24C635.82 103.24 636.67 103.24 637.53 103.24C637.53 104.24 637.53 105.12 637.53 106.11C636.63 106.11 635.78 106.11 634.92 106.11C634.92 107.06 634.92 107.91 634.92 108.82C636.76 108.82 638.52 108.82 640.31 108.82C640.31 109.81 640.31 110.72 640.31 111.73C638.45 111.73 636.67 111.73 634.92 111.73C634.92 112.66 634.92 113.49 634.92 114.32C638.61 114.32 642.22 114.32 645.84 114.32C645.84 98.5195 645.84 82.7795 645.84 67.0495C642.15 67.0495 638.54 67.0495 634.91 67.0495C634.91 67.9395 634.91 68.7695 634.91 69.6995C635.82 69.6995 636.67 69.6995 637.54 69.6995C637.54 70.6995 637.54 71.5795 637.54 72.5795C636.64 72.5795 635.79 72.5795 634.93 72.5795C634.93 73.5295 634.93 74.3795 634.93 75.2995C636.77 75.2995 638.53 75.2995 640.31 75.2995C640.31 76.2895 640.31 77.1995 640.31 78.1795C638.47 78.1795 636.71 78.1795 634.93 78.1795C634.93 79.0995 634.93 79.9495 634.93 80.8695C635.83 80.8695 636.66 80.8695 637.53 80.8695C637.53 81.8495 637.53 82.7595 637.53 83.7795C636.62 83.7795 635.77 83.7795 634.92 83.7795C634.92 84.7195 634.92 85.5395 634.92 86.4795C636.76 86.4795 638.54 86.4795 640.34 86.4795C640.34 87.4795 640.34 88.3695 640.34 89.3595C638.5 89.3595 636.72 89.3595 634.92 89.3595C634.92 90.2895 634.92 91.1195 634.92 92.0495C635.82 92.0495 636.68 92.0495 637.52 92.0495C637.52 93.0695 637.52 93.9695 637.52 94.9495C636.6 94.9395 635.77 94.9395 634.92 94.9395Z" fill="white"/>
<path d="M617.98 61.27C617.98 57.5 617.98 53.85 617.98 50C620.03 50.11 622.04 50 623.95 50.37C627.13 50.99 629.24 53.92 629.26 57.31C629.28 61.6 629.26 65.9 629.26 70.19C629.26 83.31 629.26 96.43 629.26 109.55C629.26 114.36 626.34 117.27 621.51 117.27C604.04 117.27 586.57 117.27 569.09 117.27C568.7 117.27 568.32 117.27 567.8 117.27C567.8 120.99 567.8 124.66 567.8 128.56C565.68 128.43 563.64 128.53 561.71 128.13C558.71 127.51 556.7 124.81 556.51 121.66C556.5 121.33 556.5 121 556.5 120.67C556.5 103.4 556.5 86.14 556.5 68.88C556.5 64.22 559.44 61.27 564.08 61.27C581.61 61.27 599.14 61.27 616.68 61.27C617.06 61.27 617.45 61.27 617.98 61.27ZM617.98 64.15C617.58 64.15 617.32 64.15 617.05 64.15C599.33 64.15 581.62 64.15 563.9 64.15C561.05 64.15 559.38 65.83 559.38 68.7C559.38 84.04 559.38 99.39 559.38 114.73C559.38 115.01 559.41 115.29 559.44 115.73C561.2 114.4 563.1 114.37 565.05 114.37C583.82 114.39 602.58 114.38 621.35 114.38C621.71 114.38 622.07 114.39 622.43 114.37C624.29 114.24 625.79 113.02 626.22 111.3C626.89 108.61 625.03 106.16 622.25 106.11C620.85 106.08 619.45 106.11 617.98 106.11C617.98 92.08 617.98 78.19 617.98 64.15ZM626.37 104.91C626.37 104.32 626.37 103.99 626.37 103.66C626.37 95.08 626.37 86.49 626.37 77.91C626.37 71.07 626.38 64.23 626.36 57.38C626.35 54.32 623.87 52.4 620.9 53.11C620.9 69.77 620.9 86.44 620.9 103.24C622.94 102.97 624.68 103.58 626.37 104.91ZM564.83 117.33C562.88 117.09 561.17 117.41 560.06 119.15C559.12 120.62 559.12 122.17 560.05 123.65C561.15 125.4 562.87 125.71 564.83 125.51C564.83 122.77 564.83 120.06 564.83 117.33Z" fill="white"/>
<path d="M599.35 131.24C594.91 131.24 590.46 131.25 586.02 131.23C585.68 131.23 585.3 131.12 584.99 130.97C582.37 129.7 579.77 128.4 577.16 127.12C576.55 126.82 576.1 126.44 576.08 125.71C576.06 124.93 576.54 124.53 577.18 124.22C579.76 122.94 582.32 121.63 584.91 120.36C585.32 120.16 585.82 120.03 586.28 120.03C594.93 119.99 603.58 119.96 612.22 119.96C615.42 119.96 617.16 121.89 617.37 125.07C617.66 129.41 615.07 131.39 611.24 131.22C607.28 131.04 603.31 131.18 599.35 131.18C599.35 131.19 599.35 131.22 599.35 131.24ZM608.17 122.93C601.17 122.93 594.27 122.93 587.38 122.93C587.38 123.38 587.38 123.72 587.38 124.11C594.34 124.11 601.24 124.11 608.17 124.11C608.17 123.68 608.17 123.33 608.17 122.93ZM608.15 127.11C601.21 127.11 594.32 127.11 587.39 127.11C587.39 127.5 587.39 127.87 587.39 128.27C594.34 128.27 601.23 128.27 608.15 128.27C608.15 127.86 608.15 127.52 608.15 127.11ZM611.13 128.23C613.01 128.38 613.88 128.21 614.2 127.36C614.66 126.14 614.76 124.79 614.1 123.63C613.46 122.52 612.24 122.82 611.13 122.87C611.13 124.68 611.13 126.43 611.13 128.23ZM584.38 127.46C584.38 126.19 584.38 125.07 584.38 123.83C583.14 124.45 582.01 125.02 580.74 125.66C582.01 126.29 583.14 126.85 584.38 127.46Z" fill="white"/>
<path d="M576.08 69.6797C576.08 70.6797 576.08 71.5497 576.08 72.5097C574.28 72.5097 572.5 72.5097 570.63 72.5097C570.63 79.0497 570.63 85.4797 570.63 92.0097C574.29 92.0097 577.94 92.0097 581.64 92.0097C581.64 92.9997 581.64 93.8797 581.64 94.8697C577.98 94.8697 574.33 94.8697 570.62 94.8697C570.62 98.5897 570.62 102.2 570.62 105.89C576.11 105.89 581.62 105.89 587.22 105.89C587.22 99.5097 587.22 93.1297 587.22 86.6797C588.2 86.6797 589.09 86.6797 590.08 86.6797C590.08 93.0597 590.08 99.4297 590.08 105.89C591.03 105.89 591.88 105.89 592.84 105.89C592.84 105.55 592.84 105.23 592.84 104.91C592.84 102.15 592.83 99.3897 592.84 96.6197C592.84 95.2597 593.33 94.7897 594.7 94.7897C598.12 94.7797 601.55 94.7797 604.97 94.7897C606.42 94.7897 606.9 95.2797 606.9 96.7597C606.91 99.4597 606.9 102.16 606.9 104.87C606.9 105.2 606.9 105.52 606.9 105.91C607.8 105.91 608.62 105.91 609.53 105.91C609.53 101.35 609.53 96.7797 609.53 92.1097C604 92.1097 598.5 92.1097 592.93 92.1097C592.93 91.1197 592.93 90.2397 592.93 89.2497C594.72 89.2497 596.51 89.2497 598.4 89.2497C598.4 85.4997 598.4 81.8497 598.4 78.1497C599.39 78.1497 600.28 78.1497 601.28 78.1497C601.28 81.8197 601.28 85.4697 601.28 89.1597C604.08 89.1597 606.77 89.1597 609.53 89.1597C609.53 83.6697 609.53 78.1997 609.53 72.6397C603.1 72.6397 596.67 72.6397 590.12 72.6397C590.12 75.3697 590.12 78.0897 590.12 80.8497C589.12 80.8497 588.24 80.8497 587.24 80.8497C587.24 78.0897 587.24 75.3797 587.24 72.5797C585.37 72.5797 583.61 72.5797 581.77 72.5797C581.77 71.5997 581.77 70.6897 581.77 69.6797C582.11 69.6797 582.43 69.6797 582.75 69.6797C591.97 69.6797 601.19 69.6797 610.4 69.6797C612.06 69.6797 612.48 70.0897 612.48 71.7497C612.48 83.4297 612.48 95.1097 612.48 106.79C612.48 108.44 612.06 108.86 610.4 108.86C596.83 108.86 583.26 108.86 569.68 108.86C568.07 108.86 567.66 108.45 567.66 106.84C567.66 95.1297 567.66 83.4197 567.66 71.7097C567.66 70.0997 568.07 69.6897 569.68 69.6797C571.79 69.6797 573.89 69.6797 576.08 69.6797ZM595.77 105.91C598.57 105.91 601.25 105.91 603.94 105.91C603.94 103.14 603.94 100.44 603.94 97.7497C601.17 97.7497 598.49 97.7497 595.77 97.7497C595.77 100.49 595.77 103.18 595.77 105.91Z" fill="white"/>
</g>
<path d="M492.5 107.5C493.328 107.5 494 106.828 494 106C494 105.172 493.328 104.5 492.5 104.5V107.5ZM216.5 106L231.5 114.66V97.3397L216.5 106ZM492.5 104.5H230V107.5H492.5V104.5Z" fill="#458FFF"/>
<path d="M108 216C108 215.172 107.328 214.5 106.5 214.5C105.672 214.5 105 215.172 105 216H108ZM252.5 410L237.5 401.34V418.66L252.5 410ZM105 216V386H108V216H105ZM130.5 411.5H239V408.5H130.5V411.5ZM105 386C105 400.083 116.417 411.5 130.5 411.5V408.5C118.074 408.5 108 398.426 108 386H105Z" fill="#38B949"/>
<path d="M472.5 408.5C471.672 408.5 471 409.172 471 410C471 410.828 471.672 411.5 472.5 411.5V408.5ZM602.5 216L593.84 231H611.16L602.5 216ZM472.5 411.5H578.5V408.5H472.5V411.5ZM604 386V229.5H601V386H604ZM578.5 411.5C592.583 411.5 604 400.083 604 386H601C601 398.426 590.926 408.5 578.5 408.5V411.5Z" fill="#38B949"/>
<path d="M90.2023 161.08V162.42H94.0823V168.8H95.7423V155.56H94.0823V161.08H90.2023ZM82.1423 156.94V158.28H88.5223C88.1623 161.5 85.3423 164.06 81.2423 165.42L81.9423 166.74C87.0223 165.06 90.2823 161.56 90.2823 156.94H82.1423ZM86.0423 171.74V167.46H84.4023V173.08H96.2023V171.74H86.0423ZM100.341 163.56C103.281 163.26 105.901 162.18 106.981 160.38C108.061 162.18 110.661 163.26 113.601 163.56L114.121 162.32C110.721 161.98 108.001 160.6 107.861 158.6H113.421V157.3H107.801V155.44H106.161V157.3H100.541V158.6H106.081C105.941 160.6 103.221 161.98 99.8408 162.32L100.341 163.56ZM115.081 165.88V164.56H98.8608V165.88H106.161V167.94H100.661V169.24H111.441V173.42H113.081V167.94H107.801V165.88H115.081ZM118.359 164.26C121.139 163.78 123.779 162.28 124.879 160.16C125.959 162.28 128.619 163.78 131.399 164.26L132.039 162.96C128.879 162.5 125.779 160.44 125.779 158.08V157.98H131.399V156.66H118.299V157.98H123.959V158.08C123.959 160.44 120.859 162.5 117.739 162.96L118.359 164.26ZM132.979 165.76H116.779V167.1H124.019V173.48H125.659V167.1H132.999L132.979 165.76Z" fill="white"/>
<path d="M285.913 57.08V58.42H289.793V64.8H291.453V51.56H289.793V57.08H285.913ZM277.853 52.94V54.28H284.233C283.873 57.5 281.053 60.06 276.953 61.42L277.653 62.74C282.733 61.06 285.993 57.56 285.993 52.94H277.853ZM281.753 67.74V63.46H280.113V69.08H291.913V67.74H281.753ZM296.052 59.56C298.992 59.26 301.612 58.18 302.692 56.38C303.772 58.18 306.372 59.26 309.312 59.56L309.832 58.32C306.432 57.98 303.712 56.6 303.572 54.6H309.132V53.3H303.512V51.44H301.872V53.3H296.252V54.6H301.792C301.652 56.6 298.932 57.98 295.552 58.32L296.052 59.56ZM310.792 61.88V60.56H294.572V61.88H301.872V63.94H296.372V65.24H307.152V69.42H308.792V63.94H303.512V61.88H310.792ZM330.285 60.82H331.945V51.56H330.285V54.8H326.385V56.14H330.285V60.82ZM327.645 59.16C325.065 58.3 323.245 56.12 323.245 53.78V52.12H321.625V53.78C321.625 56.38 319.845 58.64 317.145 59.56L318.005 60.86C320.105 60.08 321.725 58.52 322.485 56.5C323.265 58.32 324.825 59.74 326.805 60.44L327.645 59.16ZM322.045 67.94V66.02H331.945V61.72H320.385V63.02H330.325V64.78H320.425V69.24H332.625V67.94H322.045ZM345.144 56.54H342.484C342.644 55.64 342.724 54.74 342.724 53.82H335.844V55.16H341.104C340.824 58.92 338.904 62.14 335.044 64.44L336.004 65.6C339.404 63.58 341.344 60.88 342.184 57.86H345.144V61.02H341.904V62.36H345.144V68.56H346.704V52.02H345.144V56.54ZM348.744 51.54V69.46H350.304V51.54H348.744ZM367.738 56.54H365.078C365.238 55.64 365.318 54.74 365.318 53.82H358.438V55.16H363.698C363.418 58.92 361.498 62.14 357.638 64.44L358.598 65.6C361.998 63.58 363.938 60.88 364.778 57.86H367.738V61.02H364.498V62.36H367.738V68.56H369.298V52.02H367.738V56.54ZM371.338 51.54V69.46H372.898V51.54H371.338ZM377.496 56.86C377.496 55.16 378.776 54 380.576 54C382.356 54 383.656 55.16 383.656 56.86C383.656 58.54 382.356 59.72 380.576 59.72C378.776 59.72 377.496 58.54 377.496 56.86ZM385.256 56.86C385.256 54.34 383.276 52.62 380.576 52.62C377.856 52.62 375.896 54.34 375.896 56.86C375.896 59.36 377.856 61.1 380.576 61.1C383.276 61.1 385.256 59.36 385.256 56.86ZM377.816 64.38H387.836V69.48H389.476V63.04H377.816V64.38ZM392.076 55.64V54.28H389.476V51.56H387.836V62.2H389.476V59.46H392.076V58.12H389.476V55.64H392.076ZM403.37 56.2H406.69V54.84H403.39V52.18H401.81V54.84H398.49V56.2H401.81V57.06C401.81 60 400.43 63.14 398.01 64.58L398.97 65.8C400.73 64.74 401.99 62.74 402.61 60.46C403.27 62.62 404.55 64.44 406.29 65.42L407.23 64.18C404.81 62.88 403.37 59.92 403.37 57.06V56.2ZM408.21 58.62H405.47V59.98H408.21V68.54H409.77V51.96H408.21V58.62ZM411.81 51.54V69.46H413.39V51.54H411.81ZM429.168 55.42V57.56H424.488V58.84H429.168V60.7H430.828V51.54H429.168V54.14H425.108C425.228 53.58 425.288 53.02 425.288 52.42H417.268V53.76H423.508C423.208 56.6 420.708 58.74 416.328 59.76L416.928 61.1C420.888 60.16 423.628 58.24 424.748 55.42H429.168ZM420.928 68V65.92H430.828V61.52H419.268V62.84H429.188V64.68H419.308V69.3H431.428V68H420.928Z" fill="#1D1C1D"/>
<path d="M21.0931 300.54H18.4331C18.5931 299.64 18.6731 298.74 18.6731 297.82H11.7931V299.16H17.0531C16.7731 302.92 14.8531 306.14 10.9931 308.44L11.9531 309.6C15.3531 307.58 17.2931 304.88 18.1331 301.86H21.0931V305.02H17.8531V306.36H21.0931V312.56H22.6531V296.02H21.0931V300.54ZM24.6931 295.54V313.46H26.2531V295.54H24.6931ZM30.8516 300.86C30.8516 299.16 32.1316 298 33.9316 298C35.7116 298 37.0116 299.16 37.0116 300.86C37.0116 302.54 35.7116 303.72 33.9316 303.72C32.1316 303.72 30.8516 302.54 30.8516 300.86ZM38.6116 300.86C38.6116 298.34 36.6316 296.62 33.9316 296.62C31.2116 296.62 29.2516 298.34 29.2516 300.86C29.2516 303.36 31.2116 305.1 33.9316 305.1C36.6316 305.1 38.6116 303.36 38.6116 300.86ZM31.1716 308.38H41.1916V313.48H42.8316V307.04H31.1716V308.38ZM45.4316 299.64V298.28H42.8316V295.56H41.1916V306.2H42.8316V303.46H45.4316V302.12H42.8316V299.64H45.4316ZM52.43 305.6C53.17 305.78 54.03 305.88 54.91 305.88C55.81 305.88 56.67 305.78 57.43 305.6V309.82H52.43V305.6ZM54.91 297.96C57.79 297.96 59.87 299.28 59.87 301.28C59.87 303.28 57.79 304.6 54.91 304.6C52.03 304.6 49.97 303.28 49.97 301.28C49.97 299.28 52.03 297.96 54.91 297.96ZM59.07 309.82V304.96C60.55 304.18 61.43 302.9 61.43 301.28C61.43 298.48 58.73 296.68 54.91 296.68C51.11 296.68 48.39 298.48 48.39 301.28C48.39 302.9 49.29 304.2 50.79 304.98V309.82H46.79V311.18H63.09V309.82H59.07ZM74.2484 300.64V302H77.8284V306.42H79.4884V295.54H77.8284V300.64H74.2484ZM75.3284 304.38C72.6884 303.6 70.8284 301.6 70.8284 299.36V299.02H74.7884V297.7H70.8284V295.44H69.1884V297.7H65.2084V299.02H69.1884V299.36C69.1884 301.78 67.3884 303.96 64.7484 304.86L65.5484 306.12C67.6684 305.42 69.2884 303.9 70.0484 301.94C70.8684 303.68 72.4884 305.02 74.5484 305.66L75.3284 304.38ZM73.5484 312.18C70.8484 312.18 69.2284 311.42 69.2284 310.16C69.2284 308.92 70.8484 308.16 73.5484 308.16C76.2884 308.16 77.9084 308.92 77.9084 310.16C77.9084 311.42 76.2684 312.18 73.5484 312.18ZM73.5484 306.88C69.8684 306.88 67.5884 308.08 67.5884 310.16C67.5884 312.26 69.8684 313.46 73.5484 313.46C77.2684 313.46 79.5484 312.26 79.5484 310.16C79.5484 308.08 77.2684 306.88 73.5484 306.88Z" fill="#1D1C1D"/>
<path d="M636.999 300.54H634.339C634.499 299.64 634.579 298.74 634.579 297.82H627.699V299.16H632.959C632.679 302.92 630.759 306.14 626.899 308.44L627.859 309.6C631.259 307.58 633.199 304.88 634.039 301.86H636.999V305.02H633.759V306.36H636.999V312.56H638.559V296.02H636.999V300.54ZM640.599 295.54V313.46H642.159V295.54H640.599ZM646.758 300.86C646.758 299.16 648.038 298 649.838 298C651.618 298 652.918 299.16 652.918 300.86C652.918 302.54 651.618 303.72 649.838 303.72C648.038 303.72 646.758 302.54 646.758 300.86ZM654.518 300.86C654.518 298.34 652.538 296.62 649.838 296.62C647.118 296.62 645.158 298.34 645.158 300.86C645.158 303.36 647.118 305.1 649.838 305.1C652.538 305.1 654.518 303.36 654.518 300.86ZM647.078 308.38H657.098V313.48H658.738V307.04H647.078V308.38ZM661.338 299.64V298.28H658.738V295.56H657.098V306.2H658.738V303.46H661.338V302.12H658.738V299.64H661.338ZM682.132 295.56H680.492V308.68H682.132V295.56ZM678.372 304.82C675.732 303.94 673.872 301.76 673.872 299.34V298.36H677.932V297.04H668.092V298.36H672.192V299.34C672.192 301.9 670.372 304.24 667.652 305.18L668.512 306.46C670.632 305.7 672.292 304.08 673.052 302.04C673.872 303.92 675.512 305.4 677.572 306.12L678.372 304.82ZM672.232 311.74V307.44H670.592V313.08H682.672V311.74H672.232ZM696.59 301.76H698.87V306.9H700.45V295.54H698.87V300.42H696.59V295.88H695.03V306.24H696.59V301.76ZM694.31 297.68H690.59V295.68H688.97V297.68H685.21V298.98H694.33L694.31 297.68ZM687.43 302.98C687.43 301.88 688.37 301.14 689.79 301.14C691.19 301.14 692.15 301.88 692.15 302.98C692.15 304.1 691.19 304.84 689.79 304.84C688.37 304.84 687.43 304.1 687.43 302.98ZM693.61 302.98C693.61 301.14 692.05 299.92 689.79 299.92C687.53 299.92 685.95 301.14 685.95 302.98C685.95 304.86 687.53 306.06 689.79 306.06C692.05 306.06 693.61 304.86 693.61 302.98ZM694.55 312.2C691.81 312.2 690.17 311.52 690.17 310.34C690.17 309.14 691.81 308.46 694.55 308.46C697.27 308.46 698.91 309.14 698.91 310.34C698.91 311.52 697.27 312.2 694.55 312.2ZM694.55 307.2C690.81 307.2 688.55 308.32 688.55 310.34C688.55 312.34 690.81 313.46 694.55 313.46C698.29 313.46 700.55 312.34 700.55 310.34C700.55 308.32 698.29 307.2 694.55 307.2ZM713.524 305.6C714.264 305.78 715.124 305.88 716.004 305.88C716.904 305.88 717.764 305.78 718.524 305.6V309.82H713.524V305.6ZM716.004 297.96C718.884 297.96 720.964 299.28 720.964 301.28C720.964 303.28 718.884 304.6 716.004 304.6C713.124 304.6 711.064 303.28 711.064 301.28C711.064 299.28 713.124 297.96 716.004 297.96ZM720.164 309.82V304.96C721.644 304.18 722.524 302.9 722.524 301.28C722.524 298.48 719.824 296.68 716.004 296.68C712.204 296.68 709.484 298.48 709.484 301.28C709.484 302.9 710.384 304.2 711.884 304.98V309.82H707.884V311.18H724.184V309.82H720.164ZM735.342 300.64V302H738.922V306.42H740.582V295.54H738.922V300.64H735.342ZM736.422 304.38C733.782 303.6 731.922 301.6 731.922 299.36V299.02H735.882V297.7H731.922V295.44H730.282V297.7H726.302V299.02H730.282V299.36C730.282 301.78 728.482 303.96 725.842 304.86L726.642 306.12C728.762 305.42 730.382 303.9 731.142 301.94C731.962 303.68 733.582 305.02 735.642 305.66L736.422 304.38ZM734.642 312.18C731.942 312.18 730.322 311.42 730.322 310.16C730.322 308.92 731.942 308.16 734.642 308.16C737.382 308.16 739.002 308.92 739.002 310.16C739.002 311.42 737.362 312.18 734.642 312.18ZM734.642 306.88C730.962 306.88 728.682 308.08 728.682 310.16C728.682 312.26 730.962 313.46 734.642 313.46C738.362 313.46 740.642 312.26 740.642 310.16C740.642 308.08 738.362 306.88 734.642 306.88Z" fill="#1D1C1D"/>
<path d="M587.202 161.08V162.42H591.082V168.8H592.742V155.56H591.082V161.08H587.202ZM579.142 156.94V158.28H585.522C585.162 161.5 582.342 164.06 578.242 165.42L578.942 166.74C584.022 165.06 587.282 161.56 587.282 156.94H579.142ZM583.042 171.74V167.46H581.402V173.08H593.202V171.74H583.042ZM597.341 163.56C600.281 163.26 602.901 162.18 603.981 160.38C605.061 162.18 607.661 163.26 610.601 163.56L611.121 162.32C607.721 161.98 605.001 160.6 604.861 158.6H610.421V157.3H604.801V155.44H603.161V157.3H597.541V158.6H603.081C602.941 160.6 600.221 161.98 596.841 162.32L597.341 163.56ZM612.081 165.88V164.56H595.861V165.88H603.161V167.94H597.661V169.24H608.441V173.42H610.081V167.94H604.801V165.88H612.081ZM619.779 157.1H618.159V160.32C618.159 163.58 616.119 167.02 613.539 168.34L614.519 169.66C616.539 168.58 618.199 166.34 618.979 163.72C619.799 166.18 621.419 168.28 623.319 169.3L624.339 168C621.819 166.74 619.779 163.48 619.779 160.32V157.1ZM630.519 162.82H627.559V155.56H625.919V173.48H627.559V164.18H630.519V162.82Z" fill="white"/>
<path d="M220.505 88.5C219.677 88.497 219.003 89.1661 219 89.9946C218.997 90.823 219.666 91.497 220.495 91.5L220.505 88.5ZM496.5 91L481.531 82.2855L481.469 99.6058L496.5 91ZM220.495 91.5L482.995 92.4511L483.006 89.4511L220.505 88.5L220.495 91.5Z" fill="#458FFF"/>
<g clip-path="url(#clip1_1134_32291)">
<path d="M116.549 104.426C116.549 102.899 115.311 101.668 113.792 101.668C112.264 101.668 111.026 102.906 111.026 104.426C111.026 105.945 112.264 107.184 113.792 107.184C115.319 107.184 116.549 105.953 116.549 104.426Z" fill="white"/>
<path d="M98.6113 104.426C98.6113 102.899 97.3732 101.668 95.8535 101.668C94.3337 101.668 93.0957 102.906 93.0957 104.426C93.0957 105.945 94.3337 107.184 95.8535 107.184C97.3732 107.184 98.6113 105.953 98.6113 104.426Z" fill="white"/>
<path d="M104.726 121.151C109.003 121.151 112.487 117.666 112.487 113.389C112.487 112.751 111.968 112.232 111.331 112.232C110.693 112.232 110.174 112.751 110.174 113.389C110.174 116.391 107.735 118.83 104.733 118.83C101.731 118.83 99.2915 116.391 99.2915 113.389C99.2915 112.751 98.7726 112.232 98.1351 112.232C97.4975 112.232 96.9786 112.751 96.9786 113.389C96.9637 117.666 100.448 121.151 104.726 121.151Z" fill="white"/>
<path d="M95.1996 138.223C97.9574 139.017 100.849 139.484 103.836 139.565C104.17 139.573 104.496 139.58 104.83 139.58C108.462 139.58 112.013 139.031 115.386 137.964V138.053C116.906 137.556 118.455 136.911 120.02 136.133V136.125C120.376 135.955 120.731 135.77 121.08 135.584C122.088 135.043 123.104 134.45 124.127 133.775C125.943 132.574 127.663 131.195 129.257 129.639C132.919 126.08 135.699 121.869 137.493 117.266C137.641 117.295 137.79 117.31 137.945 117.31C142.46 117.31 146.13 113.641 146.13 109.126C146.13 105.278 143.461 102.039 139.873 101.171V84.9507C139.873 83.6682 138.835 82.6304 137.552 82.6304C136.27 82.6304 135.232 83.6682 135.232 84.9507V104.522C135.232 112.803 131.963 120.55 126.025 126.332C120.086 132.107 112.273 135.162 103.955 134.939C88.4386 134.517 75.8507 122.225 74.5089 106.605C79.0088 103.195 81.6628 97.9094 81.6628 92.2085C81.6628 90.5701 81.4404 88.9466 81.0104 87.3823C81.0104 87.3082 81.003 87.2267 81.003 87.1525C81.003 84.2687 83.3531 81.9187 86.2369 81.9187C86.7187 81.9187 87.1932 81.9854 87.6528 82.1114C94.1395 85.2844 101.116 86.8856 108.388 86.8856C125.016 86.8856 140.621 77.9896 149.125 63.6669C149.621 62.8292 149.547 61.7765 148.932 61.0203C143.883 54.7931 137.241 50.1004 129.716 47.4464C128.508 47.0239 127.181 47.654 126.758 48.8624C126.328 50.0708 126.966 51.3978 128.174 51.8203C134.372 54.0073 139.91 57.751 144.269 62.6883C136.44 74.7944 122.844 82.2449 108.388 82.2449C102.324 82.2449 96.497 81.0068 91.0333 78.5604C90.8999 78.4566 90.759 78.3602 90.6033 78.2861C89.2393 77.6115 87.7714 77.2705 86.2443 77.2705C80.8028 77.2705 76.3696 81.6963 76.3696 87.1451C76.3696 87.2637 76.3771 87.3823 76.3771 87.4935C76.3622 87.7085 76.3771 87.9309 76.4215 88.1533C76.4586 88.5462 76.5253 88.9392 76.6143 89.3246C76.6662 89.5396 76.7403 89.7398 76.8367 89.9177C76.9627 90.6665 77.0294 91.43 77.0294 92.1936C77.0294 95.9226 75.5097 99.4069 72.8631 101.92C70.009 98.9027 68.3854 94.8773 68.3854 90.7035C68.3854 84.758 71.6251 79.2795 76.8589 76.4031C78.097 75.7211 79.0755 74.7203 79.7131 73.4452C79.7353 73.4007 79.7576 73.3488 79.7798 73.3043C85.8069 58.9223 99.7737 49.626 115.364 49.626C116.743 49.626 118.137 49.7001 119.501 49.8484C120.776 49.9892 121.917 49.0625 122.051 47.7874C122.184 46.5123 121.265 45.3707 119.99 45.2372C118.463 45.0815 116.906 45 115.364 45C97.8981 45 82.2559 55.4084 75.5468 71.4361C75.3614 71.8068 75.0426 72.1256 74.6201 72.3554C67.9184 76.0399 63.7521 83.0752 63.7521 90.7109C63.7521 94.8402 64.9827 98.8583 67.2289 102.254C64.9456 103.729 63.5 106.279 63.5 109.133C63.5 113.648 67.1696 117.318 71.6844 117.318C71.8994 117.318 72.1069 117.288 72.2997 117.236C75.7024 125.836 82.2781 132.76 90.5589 136.511V136.541C91.7598 137.089 93.3241 137.712 95.1922 138.26V138.223H95.1996ZM139.843 106.138C140.836 106.768 141.504 107.873 141.504 109.141C141.504 110.742 140.436 112.106 138.968 112.543C139.45 110.453 139.747 108.31 139.843 106.138ZM68.1334 109.133C68.1334 107.866 68.7932 106.731 69.831 106.101C69.9645 108.318 70.2981 110.482 70.8096 112.566C69.275 112.18 68.1334 110.786 68.1334 109.133Z" fill="white"/>
<path opacity="0.5" d="M92.3907 113.1C93.4879 113.1 94.3849 112.21 94.3849 111.106C94.3849 110.008 93.4953 109.111 92.3907 109.111C91.2935 109.111 90.3965 110.001 90.3965 111.106C90.3965 112.21 91.2861 113.1 92.3907 113.1Z" fill="white"/>
<path opacity="0.5" d="M117.061 113.1C118.158 113.1 119.055 112.21 119.055 111.106C119.055 110.008 118.165 109.111 117.061 109.111C115.963 109.111 115.066 110.001 115.066 111.106C115.066 112.21 115.956 113.1 117.061 113.1Z" fill="white"/>
<path d="M97.9057 98.6362C98.5433 98.6362 99.0622 98.1173 99.0622 97.4797C99.0622 96.8422 98.5433 96.3232 97.9057 96.3232H91.1077C90.4701 96.3232 89.9512 96.8422 89.9512 97.4797C89.9512 98.1173 90.4701 98.6362 91.1077 98.6362H97.9057Z" fill="white"/>
<path d="M119.501 97.4797C119.501 96.8422 118.982 96.3232 118.344 96.3232H111.546C110.909 96.3232 110.39 96.8422 110.39 97.4797C110.39 98.1173 110.909 98.6362 111.546 98.6362H118.344C118.989 98.6362 119.501 98.1173 119.501 97.4797Z" fill="white"/>
</g>
<defs>
<clipPath id="clip0_1134_32291">
<rect width="92.25" height="81.24" fill="white" transform="translate(556.5 50)"/>
</clipPath>
<clipPath id="clip1_1134_32291">
<rect width="85.9508" height="94.58" fill="white" transform="translate(63.5 45)"/>
</clipPath>
</defs>
</svg>
