<svg width="1066" height="285" viewBox="0 0 1066 285" fill="none" xmlns="http://www.w3.org/2000/svg">
<g clip-path="url(#clip0_1134_32054)">
<path d="M19.8 55.5206H91.3569C92.9204 55.5206 94.1794 54.2616 94.1794 52.6981V27.0725C94.1794 25.5089 92.9204 24.25 91.3569 24.25H19.8C18.2365 24.25 16.9775 25.5089 16.9775 27.0725V52.6981C16.9775 54.2616 18.2365 55.5206 19.8 55.5206ZM22.6225 29.895H88.5344V49.8756H22.6225V29.895Z" fill="#292C31"/>
<path d="M148.861 178.309C172.131 178.309 190.995 159.445 190.995 136.175C190.995 112.905 172.131 94.041 148.861 94.041C125.591 94.041 106.727 112.905 106.727 136.175C106.727 159.445 125.591 178.309 148.861 178.309Z" stroke="#292C31" stroke-width="6.09167" stroke-miterlimit="10"/>
<path d="M151.645 180.888H145.98V185.213V190.716H6.52093V15.7836H105.084V52.6992C105.084 54.2627 106.343 55.5216 107.907 55.5216H145.98V92.0311H151.625V52.9834C151.746 51.8666 151.32 51.0544 150.569 50.4859L109.876 10.9306C109.348 10.4229 108.496 10.1387 107.907 10.1387H3.69845C2.13492 10.1387 0.875977 11.3976 0.875977 12.9611V193.539C0.875977 195.102 2.13492 196.361 3.69845 196.361H148.802C150.366 196.361 151.625 195.102 151.625 193.539V185.213H151.645V180.888ZM110.729 19.6417L141.837 49.8767H110.729V19.6417Z" fill="#292C31"/>
<path d="M20.3252 169.801H90.9886" stroke="#292C31" stroke-width="5.48251" stroke-miterlimit="10" stroke-linecap="round"/>
<path d="M20.3252 146.449H90.9886" stroke="#292C31" stroke-width="5.48251" stroke-miterlimit="10" stroke-linecap="round"/>
<path d="M20.3252 123.119H90.9886" stroke="#292C31" stroke-width="5.48251" stroke-miterlimit="10" stroke-linecap="round"/>
<path d="M20.3252 99.7871H100.898" stroke="#292C31" stroke-width="5.48251" stroke-miterlimit="10" stroke-linecap="round"/>
<path d="M20.3252 76.4355H126.28" stroke="#292C31" stroke-width="5.48251" stroke-miterlimit="10" stroke-linecap="round"/>
<path d="M126.485 136.176H171.219" stroke="#292C31" stroke-width="5.48251" stroke-miterlimit="10" stroke-linecap="round"/>
<path d="M148.86 113.799V158.532" stroke="#292C31" stroke-width="5.48251" stroke-miterlimit="10" stroke-linecap="round"/>
</g>
<path d="M24.6885 252.001H17.5525V242.017H24.6885V252.001ZM14.9285 252.001H10.5445V254.145H31.6965V252.001H27.3125V242.017H31.7605V239.905H10.4805V242.017H14.9285V252.001ZM8.17647 259.873V262.049H34.1925V259.873H8.17647ZM51.418 260.033V254.625H60.602V252.513H42.938V247.873H59.93V239.137H40.282V241.281H57.37V245.761H40.346V254.625H48.762V260.033H37.082V262.177H63.162V260.033H51.418ZM77.8915 244.417V246.561H82.2115V254.369H84.7075V237.665H82.2115V244.417H77.8915ZM80.1315 251.201C76.5475 249.665 74.5315 246.273 74.5315 243.105V241.505H79.4595V239.361H66.7235V241.505H72.0035V243.137C72.0035 246.561 69.8915 250.273 66.1795 251.873L67.5555 253.889C70.3395 252.641 72.3235 250.273 73.3155 247.489C74.3075 249.985 76.1955 252.065 78.8195 253.217L80.1315 251.201ZM70.9795 257.985H87.6515V265.761H90.2755V255.873H70.9795V257.985ZM87.7475 237.057V254.593H90.2755V237.057H87.7475ZM118.029 252.513H100.973V247.969H117.101V245.889H100.973V241.633H117.741V239.521H98.317V254.625H118.029V252.513ZM94.957 259.873V262.017H121.005V259.873H94.957ZM154.683 245.825H137.627V240.289H154.491V238.177H135.003V247.937H154.683V245.825ZM144.699 263.649C140.187 263.649 137.531 262.529 137.531 260.513C137.531 258.497 140.187 257.377 144.699 257.377C149.211 257.377 151.867 258.497 151.867 260.513C151.867 262.529 149.179 263.649 144.699 263.649ZM144.699 255.329C138.587 255.329 134.875 257.185 134.875 260.513C134.875 263.841 138.587 265.697 144.699 265.697C150.811 265.697 154.523 263.841 154.523 260.513C154.523 257.185 150.811 255.329 144.699 255.329ZM131.739 250.689V252.865H157.723V250.689H131.739ZM163.556 259.297H180.9V265.473H183.524V257.153H163.556V259.297ZM175.012 252.801V249.793H183.972V247.745H166.596V244.737H183.364V237.761H163.94V239.809H180.772V242.785H164.004V249.793H172.356V252.801H160.644V254.945H186.692V252.801H175.012Z" fill="#292C31"/>
<path d="M284.989 124.616C283.689 125.916 283.689 128.016 284.989 129.316L297.922 142.249L284.989 155.183C283.689 156.483 283.689 158.583 284.989 159.883C286.289 161.183 288.389 161.183 289.689 159.883L304.989 144.583C306.289 143.283 306.289 141.183 304.989 139.883L289.689 124.583C288.422 123.316 286.289 123.316 284.989 124.616Z" fill="#38B949"/>
<g clip-path="url(#clip1_1134_32054)">
<path d="M485.735 71.7344L493.248 82.5776C493.735 83.268 494.507 83.7147 495.339 83.7756C496.212 83.8365 497.025 83.5116 497.593 82.9025L515.218 64.3635C516.295 63.2264 516.254 61.4395 515.117 60.3836C513.98 59.3074 512.193 59.348 511.137 60.4851L495.888 76.5062L490.364 68.5058C489.471 67.2266 487.725 66.9017 486.445 67.7951C485.166 68.6886 484.841 70.4552 485.735 71.7344Z" fill="#2A2C31"/>
<path d="M527.142 68.5879H590.373" stroke="#2A2C31" stroke-width="5.48251" stroke-miterlimit="10" stroke-linecap="round"/>
<path d="M527.142 79.8574H590.373" stroke="#2A2C31" stroke-width="5.48251" stroke-miterlimit="10" stroke-linecap="round"/>
<path d="M527.142 110.457H590.373" stroke="#2A2C31" stroke-width="5.48251" stroke-miterlimit="10" stroke-linecap="round"/>
<path d="M527.142 121.707H590.373" stroke="#2A2C31" stroke-width="5.48251" stroke-miterlimit="10" stroke-linecap="round"/>
<path d="M608.892 30.3125H585.175H580.078H568.463V35.3889H585.175H606.069V192.656H536.34H466.976V35.3889H489.454H506.166V30.3125H492.967H489.454H464.154C462.59 30.3125 461.331 31.4496 461.331 32.8507V195.194C461.331 196.595 462.59 197.732 464.154 197.732H536.34H536.705H608.892C610.455 197.732 611.714 196.595 611.714 195.194V32.8507C611.714 31.4496 610.455 30.3125 608.892 30.3125Z" fill="#2A2C31"/>
<path d="M506.161 38.6158V20.4829H524.233C524.233 20.4829 525.898 11.5078 535.787 11.5078C535.787 11.5078 544.579 11.5078 547.828 20.4829H566.408V38.6158H506.161Z" stroke="#2A2C31" stroke-width="5.48251" stroke-miterlimit="10" stroke-linecap="round" stroke-linejoin="round"/>
<path d="M505.654 106.986H487.887V124.754H505.654V106.986Z" stroke="#2A2C31" stroke-width="5.48251" stroke-miterlimit="10" stroke-linecap="round" stroke-linejoin="round"/>
<path d="M527.142 156.877H590.373" stroke="#2A2C31" stroke-width="5.48251" stroke-miterlimit="10" stroke-linecap="round"/>
<path d="M527.142 168.125H590.373" stroke="#2A2C31" stroke-width="5.48251" stroke-miterlimit="10" stroke-linecap="round"/>
<path d="M505.654 153.404H487.887V171.172H505.654V153.404Z" stroke="#2A2C31" stroke-width="5.48251" stroke-miterlimit="10" stroke-linecap="round" stroke-linejoin="round"/>
</g>
<path d="M405.023 254.49C406.207 254.778 407.583 254.938 408.991 254.938C410.431 254.938 411.807 254.778 413.023 254.49V261.242H405.023V254.49ZM408.991 242.266C413.599 242.266 416.927 244.378 416.927 247.578C416.927 250.778 413.599 252.89 408.991 252.89C404.383 252.89 401.087 250.778 401.087 247.578C401.087 244.378 404.383 242.266 408.991 242.266ZM415.647 261.242V253.466C418.015 252.218 419.423 250.17 419.423 247.578C419.423 243.098 415.103 240.218 408.991 240.218C402.911 240.218 398.559 243.098 398.559 247.578C398.559 250.17 399.999 252.25 402.399 253.498V261.242H395.999V263.418H422.079V261.242H415.647ZM450.952 252.602H446.696C447.496 248.474 447.496 245.434 447.496 242.746V240.25H428.232V242.362H444.936V242.746C444.936 245.434 444.936 248.474 444.04 252.602H425V254.746H436.584V267.13H439.24V254.746H450.952V252.602ZM463.538 240.89H460.946V246.042C460.946 251.258 457.682 256.762 453.554 258.874L455.122 260.986C458.354 259.258 461.01 255.674 462.258 251.482C463.57 255.418 466.162 258.778 469.202 260.41L470.834 258.33C466.802 256.314 463.538 251.098 463.538 246.042V240.89ZM480.722 250.042H475.986V238.426H473.362V267.098H475.986V252.218H480.722V250.042ZM499.867 241.626H492.699V238.138H490.075V241.626H482.939V243.738H499.867V241.626ZM487.035 250.234C487.035 248.378 488.763 247.162 491.387 247.162C494.011 247.162 495.771 248.378 495.771 250.234C495.771 252.122 494.011 253.338 491.387 253.338C488.763 253.338 487.035 252.122 487.035 250.234ZM498.267 250.234C498.267 247.162 495.483 245.178 491.387 245.178C487.291 245.178 484.539 247.162 484.539 250.234C484.539 253.338 487.291 255.322 491.387 255.322C495.483 255.322 498.267 253.338 498.267 250.234ZM496.123 265.05C491.931 265.05 489.371 263.962 489.371 262.106C489.371 260.25 491.931 259.162 496.123 259.162C500.315 259.162 502.875 260.25 502.875 262.106C502.875 263.962 500.315 265.05 496.123 265.05ZM496.123 257.146C490.331 257.146 486.779 258.938 486.779 262.106C486.779 265.242 490.331 267.066 496.123 267.066C501.883 267.066 505.467 265.242 505.467 262.106C505.467 258.938 501.883 257.146 496.123 257.146ZM505.115 246.362V238.394H502.491V256.858H505.115V248.538H509.339V246.362H505.115ZM536.649 241.018H529.737V238.202H527.113V241.018H520.169V243.002H536.649V241.018ZM524.201 248.314C524.201 246.81 525.833 245.882 528.425 245.882C530.953 245.882 532.617 246.81 532.617 248.314C532.617 249.818 530.953 250.778 528.425 250.778C525.833 250.778 524.201 249.818 524.201 248.314ZM537.513 253.818C535.017 254.202 532.361 254.394 529.737 254.522V252.538C533.033 252.186 535.113 250.65 535.113 248.314C535.113 245.69 532.425 244.058 528.425 244.058C524.361 244.058 521.705 245.69 521.705 248.314C521.705 250.682 523.785 252.218 527.113 252.538V254.618C524.361 254.714 521.737 254.714 519.465 254.714L519.753 256.826C524.777 256.794 531.561 256.762 537.705 255.706L537.513 253.818ZM522.953 261.178H539.209V267.098H541.833V259.098H522.953V261.178ZM546.025 247.098H541.833V238.426H539.209V257.658H541.833V249.274H546.025V247.098ZM572.083 238.426H569.459V259.386H572.083V238.426ZM551.763 247.45C551.763 244.666 553.875 242.682 556.659 242.682C559.507 242.682 561.619 244.666 561.619 247.45C561.619 250.298 559.507 252.282 556.659 252.282C553.875 252.282 551.763 250.298 551.763 247.45ZM564.179 247.45C564.179 243.322 560.947 240.41 556.659 240.41C552.403 240.41 549.203 243.322 549.203 247.45C549.203 251.61 552.403 254.554 556.659 254.554C560.947 254.554 564.179 251.61 564.179 247.45ZM556.243 264.314V257.242H553.619V266.458H572.947V264.314H556.243ZM608.801 238.394H606.177V254.874H608.801V238.394ZM597.633 249.882H589.345V242.33H597.633V249.882ZM600.193 240.25H586.785V251.994H600.193V240.25ZM609.473 258.842V256.826H601.057V254.042H598.401V256.826H589.985V258.842H598.369C598.337 261.69 593.761 264.41 588.865 264.986L589.729 267.002C594.049 266.394 598.017 264.474 599.745 261.754C601.441 264.41 605.281 266.394 609.601 267.002L610.497 264.986C605.569 264.378 601.121 261.594 601.089 258.842H609.473ZM638.607 251.898C634.479 250.49 631.663 246.906 631.663 243.034V239.866H629.039V242.81C629.039 247.194 626.255 251.098 621.903 252.666L623.279 254.746C626.639 253.466 629.199 250.842 630.383 247.482C631.663 250.426 634.127 252.794 637.231 253.946L638.607 251.898ZM635.183 265.018C630.927 265.018 628.335 263.834 628.335 261.85C628.335 259.834 630.927 258.65 635.183 258.65C639.407 258.65 641.999 259.834 641.999 261.85C641.999 263.834 639.407 265.018 635.183 265.018ZM635.183 256.602C629.327 256.602 625.711 258.49 625.711 261.85C625.711 265.178 629.327 267.066 635.183 267.066C641.007 267.066 644.623 265.178 644.623 261.85C644.623 258.49 641.007 256.602 635.183 256.602ZM644.303 245.818V238.426H641.679V255.802H644.303V247.994H648.559V245.818H644.303ZM667.576 249.914C663.832 250.65 660.568 250.874 654.904 250.874V242.426H664.92V240.314H652.28V253.05H654.52C660.536 253.05 663.928 252.826 667.864 252.026L667.576 249.914ZM657.784 258.266H670.648V264.57H657.784V258.266ZM655.224 266.682H673.24V256.186H655.224V266.682ZM677.496 245.402H673.24V238.362H670.616V254.65H673.24V247.578H677.496V245.402Z" fill="#292C31"/>
<path d="M769.989 124.616C768.689 125.916 768.689 128.016 769.989 129.316L782.922 142.249L769.989 155.183C768.689 156.483 768.689 158.583 769.989 159.883C771.289 161.183 773.389 161.183 774.689 159.883L789.989 144.583C791.289 143.283 791.289 141.183 789.989 139.883L774.689 124.583C773.422 123.316 771.289 123.316 769.989 124.616Z" fill="#38B949"/>
<g clip-path="url(#clip2_1134_32054)">
<path d="M1065.26 129.353C1065.26 129.332 1065.26 129.332 1065.26 129.312V29.2867C1065.26 24.19 1061.12 20.0273 1056.04 20.0273H888.279C883.182 20.0273 879.02 24.1697 879.02 29.2867V152.765C879.02 157.841 883.182 161.984 888.279 161.984H948.972L939.855 181.152H930.535C928.971 181.152 927.712 182.411 927.712 183.975V203.427C927.712 204.991 928.971 206.25 930.535 206.25H1013.77C1015.33 206.25 1016.59 204.991 1016.59 203.427V183.975C1016.59 182.411 1015.33 181.152 1013.77 181.152H1004.45L995.33 161.984H1056.02C1061.12 161.984 1065.24 157.841 1065.24 152.765V129.393C1065.24 129.373 1065.26 129.373 1065.26 129.353ZM1010.94 200.605H933.337V186.797C966.557 186.797 976.243 186.797 1010.92 186.797V200.605H1010.94ZM946.089 181.172L955.186 162.004H989.076L998.173 181.172H946.089ZM888.279 25.6723H1056.02C1057.99 25.6723 1059.6 27.2967 1059.6 29.2867V126.53H884.664V29.2867C884.664 27.2967 886.289 25.6723 888.279 25.6723ZM1056.02 156.339H888.279C886.289 156.339 884.664 154.735 884.664 152.765V132.175H1059.6V152.765C1059.6 154.735 1057.99 156.339 1056.02 156.339Z" fill="#292C31"/>
<path d="M972.147 134.611C966.99 134.611 962.807 138.794 962.807 143.952C962.807 149.11 966.99 153.292 972.147 153.292C977.305 153.292 981.488 149.11 981.488 143.952C981.488 138.794 977.305 134.611 972.147 134.611ZM972.147 147.668C970.096 147.668 968.452 146.003 968.452 143.972C968.452 141.921 970.117 140.277 972.147 140.277C974.198 140.277 975.843 141.942 975.843 143.972C975.843 146.003 974.198 147.668 972.147 147.668Z" fill="#292C31"/>
<path d="M899.147 102.529H947.941C949.505 102.529 950.764 101.27 950.764 99.7062V93.4521C950.764 83.1775 942.926 74.6897 932.915 73.6947C937.098 70.791 939.84 65.9786 939.84 60.5367C939.84 51.7038 932.611 44.5156 923.737 44.5156C914.864 44.5156 907.655 51.7038 907.655 60.5367C907.655 65.9786 910.396 70.7707 914.559 73.6744C904.366 74.507 896.345 83.0556 896.345 93.4521V99.7062C896.325 101.27 897.584 102.529 899.147 102.529ZM923.737 50.1403C929.504 50.1403 934.195 54.7903 934.195 60.5164C934.195 66.2426 929.504 70.8926 923.737 70.8926C917.97 70.8926 913.28 66.2426 913.28 60.5164C913.28 54.7903 917.97 50.1403 923.737 50.1403ZM901.97 93.4521C901.97 85.6141 908.346 79.2179 916.204 79.2179H930.905C938.743 79.2179 945.139 85.5938 945.139 93.4521V96.8837H901.97V93.4521Z" fill="#292C31"/>
<path d="M899.143 116.498H947.937C949.501 116.498 950.76 115.24 950.76 113.676C950.76 112.112 949.501 110.854 947.937 110.854H899.143C897.579 110.854 896.32 112.112 896.32 113.676C896.32 115.24 897.579 116.498 899.143 116.498Z" fill="#292C31"/>
<path d="M1041.3 78.5891L1021.1 91.8284C1020.35 92.3157 1020.14 93.3107 1020.63 94.062C1021.12 94.8133 1022.11 95.0164 1022.86 94.529L1042.99 81.3304C1044.14 80.6603 1045.44 81.2695 1046.03 82.5284C1046.68 83.9295 1046.19 85.7164 1044.9 86.4474L1011.55 107.91C1009.67 109.088 1007.43 109.352 1005.38 108.601L987.958 102.367C987.755 102.306 987.552 102.265 987.349 102.265L981.806 102.489V79.0968C984.974 78.3455 993.908 76.7819 997.807 81.7568C998.639 82.8127 999.918 83.4016 1001.36 83.4016H1016.39C1017.67 83.4016 1018.72 84.6605 1018.72 86.2037C1018.72 87.747 1017.69 89.0059 1016.39 89.0059H1002.07C1000.51 89.0059 999.066 89.9197 998.294 91.402C997.461 92.9858 997.563 94.8742 998.639 96.3971C999.147 97.1281 1000.12 97.25 1000.85 96.7423C1001.58 96.2347 1001.73 95.1788 1001.22 94.4681C1000.85 93.9402 1000.95 93.3107 1001.16 92.9046C1001.24 92.7421 1001.54 92.2548 1002.09 92.2548H1016.41C1019.47 92.2548 1021.95 89.5542 1021.95 86.224C1021.95 82.8939 1019.45 80.1933 1016.41 80.1933H1001.38C1001.18 80.1933 1000.65 80.1527 1000.37 79.7872C995.573 73.6955 986.05 74.9138 981.826 75.8276V73.5534C981.826 72.6599 981.095 71.9492 980.222 71.9492H964.607C963.714 71.9492 963.003 72.6802 963.003 73.5534V107.464C963.003 108.357 963.734 109.068 964.607 109.068H980.222C981.116 109.068 981.826 108.337 981.826 107.464V105.778L987.187 105.555L1004.32 111.687C1007.39 112.784 1010.64 112.337 1013.3 110.692C1031.47 99.3211 1021.22 105.9 1046.6 89.2496C1049.28 87.7063 1050.34 84.1935 1049 81.2492C1047.64 78.3049 1044.29 76.8835 1041.3 78.5891ZM978.598 105.819H966.211V75.1169H978.598V105.819Z" fill="#292C31" stroke="#292C31" stroke-width="2.03056" stroke-miterlimit="10"/>
<path d="M1010.72 60.0904C1025.81 60.0904 1038.05 47.8537 1038.05 32.759C1038.05 17.6644 1025.81 5.42773 1010.72 5.42773C995.625 5.42773 983.389 17.6644 983.389 32.759C983.389 47.8537 995.625 60.0904 1010.72 60.0904Z" fill="white"/>
<path d="M1009.99 64.9639C1027.76 64.9639 1042.21 50.4454 1042.21 32.6171C1042.21 14.7888 1027.76 0.25 1009.99 0.25C992.222 0.25 977.765 14.7685 977.765 32.5968C977.765 50.4251 992.222 64.9639 1009.99 64.9639ZM1009.99 5.89495C1024.65 5.89495 1036.57 17.8752 1036.57 32.6171C1036.57 47.3386 1024.65 59.3392 1009.99 59.3392C995.329 59.3392 983.41 47.3589 983.41 32.6171C983.41 17.8752 995.329 5.89495 1009.99 5.89495Z" fill="#292C31"/>
<path d="M999.617 40.3945L995.738 45.0647C999.596 48.4558 1003.96 50.4051 1008.84 50.9127V54.8317H1012.25V50.9737C1015.86 50.7909 1018.76 49.7147 1020.98 47.7654C1023.17 45.7957 1024.29 43.2575 1024.29 40.1305C1024.29 37.0034 1023.33 34.6074 1021.4 32.9829C1019.5 31.3382 1016.49 30.0386 1012.41 29.0639H1012.23V18.9721C1014.97 19.3579 1017.51 20.3935 1019.84 22.0788L1023.29 17.1446C1019.82 14.7485 1016.13 13.4083 1012.23 13.1241V10.3828H1008.82V13.0631C1005.38 13.2459 1002.58 14.3221 1000.43 16.2714C998.276 18.2411 997.2 20.759 997.2 23.8454C997.2 26.9319 998.134 29.267 1000 30.8508C1001.87 32.4347 1004.79 33.6936 1008.82 34.648V45.0444C1005.67 44.5571 1002.58 43.0139 999.617 40.3945ZM1012.23 35.582C1014.36 36.2318 1015.82 36.9222 1016.59 37.6532C1017.36 38.3842 1017.77 39.3792 1017.77 40.6178C1017.77 41.8768 1017.26 42.9123 1016.29 43.7246C1015.29 44.5571 1013.95 45.0444 1012.25 45.2272V35.582H1012.23ZM1004.77 26.0587C1004.06 25.3683 1003.72 24.414 1003.72 23.2159C1003.72 22.0179 1004.17 21.0229 1005.08 20.2107C1005.99 19.3985 1007.23 18.9315 1008.84 18.7893V28.069C1006.83 27.4395 1005.48 26.7694 1004.77 26.0587Z" fill="#292C31"/>
</g>
<path d="M932.736 246.946V262.338H935.36V246.946H932.736ZM916.864 263.746V275.234H935.36V263.746H932.768V267.266H919.456V263.746H916.864ZM919.456 269.314H932.768V273.122H919.456V269.314ZM919.936 248.29C915.616 248.29 912.48 250.978 912.48 254.882C912.48 258.85 915.616 261.506 919.936 261.506C924.288 261.506 927.456 258.85 927.456 254.882C927.456 250.978 924.288 248.29 919.936 248.29ZM919.936 250.466C922.848 250.466 924.896 252.29 924.896 254.882C924.896 257.506 922.848 259.33 919.936 259.33C917.088 259.33 915.04 257.506 915.04 254.882C915.04 252.29 917.088 250.466 919.936 250.466ZM957.61 259.33C953.45 258.306 950.538 255.554 950.538 252.45V251.97H956.874V249.858H950.538V246.786H947.914V249.858H941.546V251.97H947.914V252.45C947.914 255.874 944.906 258.754 940.65 259.874L941.834 261.89C945.29 260.93 948.01 258.882 949.258 256.098C950.57 258.594 953.194 260.482 956.49 261.346L957.61 259.33ZM947.434 270.21H963.018V263.49H944.778V265.538H960.426V268.258H944.874V275.298H964.074V273.25H947.434V270.21ZM963.018 253.314V246.946H960.394V262.082H963.018V255.49H967.274V253.314H963.018ZM980.056 259.618C984.696 258.914 988.92 256.61 990.488 253.282C992.024 256.61 996.248 258.914 1000.92 259.618L1001.88 257.506C996.824 256.834 992.184 253.986 992.184 250.498V250.466H1001.11V248.354H979.864V250.466H988.792V250.498C988.792 253.986 984.152 256.834 979.064 257.506L980.056 259.618ZM983.384 266.85H980.76V274.978H1000.6V272.834H983.384V266.85ZM977.432 261.698V263.81H989.368V269.634H991.992V263.81H1003.48V261.698H977.432ZM1027.3 246.914V275.65H1029.92V246.914H1027.3ZM1008.07 249.346V268.706H1021.57V249.346H1018.98V256.93H1010.66V249.346H1008.07ZM1010.66 259.01H1018.98V266.562H1010.66V259.01Z" fill="#292C31"/>
<defs>
<clipPath id="clip0_1134_32054">
<rect width="193.147" height="186.222" fill="white" transform="translate(0.875977 10.1387)"/>
</clipPath>
<clipPath id="clip1_1134_32054">
<rect width="150.383" height="188.964" fill="white" transform="translate(461.331 8.76758)"/>
</clipPath>
<clipPath id="clip2_1134_32054">
<rect width="186.243" height="206" fill="white" transform="translate(879.022 0.25)"/>
</clipPath>
</defs>
</svg>
