<svg width="22" height="22" viewBox="0 0 22 22" fill="none" xmlns="http://www.w3.org/2000/svg">
<g clip-path="url(#clip0_1228_35067)">
<path d="M17.8 4.2H4.2V14.4H16.8055L17.8 15.3945V4.2ZM17.8 2.5C18.735 2.5 19.4915 3.265 19.4915 4.2L19.5 19.5L16.1 16.1H4.2C3.265 16.1 2.5 15.335 2.5 14.4V4.2C2.5 3.265 3.265 2.5 4.2 2.5H17.8ZM16.1 11H9.3V12.7H16.1V11ZM16.1 8.45H5.9V10.15H16.1V8.45ZM16.1 5.9H5.9V7.6H16.1V5.9Z" fill="white"/>
</g>
<defs>
<clipPath id="clip0_1228_35067">
<rect width="20.4" height="20.4" fill="white" transform="matrix(-1 0 0 1 21.2002 0.800781)"/>
</clipPath>
</defs>
</svg>
