<svg width="30" height="30" viewBox="0 0 30 30" fill="none" xmlns="http://www.w3.org/2000/svg">
<path d="M26.6667 0H3.33333C1.5 0 0 1.5 0 3.33333V26.6667C0 28.5 1.5 30 3.33333 30H26.6667C28.5 30 30 28.5 30 26.6667V3.33333C30 1.5 28.5 0 26.6667 0ZM12.85 22.15C12.2 22.8 11.15 22.8 10.5 22.15L4.51667 16.1667C3.86667 15.5167 3.86667 14.4667 4.51667 13.8167C5.16667 13.1667 6.21667 13.1667 6.86667 13.8167L11.6667 18.6167L23.1333 7.15C23.7833 6.5 24.8333 6.5 25.4833 7.15C26.1333 7.8 26.1333 8.85 25.4833 9.5L12.85 22.15Z" fill="#5AC466"/>
</svg>
