<svg width="27" height="26" viewBox="0 0 27 26" fill="none" xmlns="http://www.w3.org/2000/svg">
<path d="M12.4165 16.2513H14.5832V18.418H12.4165V16.2513ZM12.4165 7.58464H14.5832V14.0846H12.4165V7.58464ZM13.489 2.16797C7.509 2.16797 2.6665 7.0213 2.6665 13.0013C2.6665 18.9813 7.509 23.8346 13.489 23.8346C19.4798 23.8346 24.3332 18.9813 24.3332 13.0013C24.3332 7.0213 19.4798 2.16797 13.489 2.16797ZM13.4998 21.668C8.7115 21.668 4.83317 17.7896 4.83317 13.0013C4.83317 8.21297 8.7115 4.33464 13.4998 4.33464C18.2882 4.33464 22.1665 8.21297 22.1665 13.0013C22.1665 17.7896 18.2882 21.668 13.4998 21.668Z" fill="#5F6871"/>
</svg>
