<svg width="81" height="80" viewBox="0 0 81 80" fill="none" xmlns="http://www.w3.org/2000/svg">
<path d="M53.8333 73.3346C57.5 73.3346 60.5 70.3346 60.5 66.668L60.4667 56.068C60.4667 54.3013 59.7667 52.6346 58.5333 51.368L47.1667 40.0013L58.5333 28.568C59.7667 27.3346 60.4667 25.6346 60.4667 23.868L60.5 13.3346C60.5 9.66797 57.5 6.66797 53.8333 6.66797H27.1667C23.5 6.66797 20.5 9.66797 20.5 13.3346V23.868C20.5 25.6346 21.2 27.3346 22.4333 28.6013L33.8333 40.0013L22.4667 51.3346C21.2 52.6013 20.5 54.3013 20.5 56.068V66.668C20.5 70.3346 23.5 73.3346 27.1667 73.3346H53.8333ZM27.1667 23.6346V16.668C27.1667 14.8346 28.6667 13.3346 30.5 13.3346H50.5C52.3333 13.3346 53.8333 14.8346 53.8333 16.668V23.6346C53.8333 24.5346 53.4667 25.368 52.8667 26.0013L40.5 38.3346L28.1333 25.968C27.5333 25.368 27.1667 24.5013 27.1667 23.6346Z" fill="#38B949"/>
</svg>
